<!-- <svg width="0" height="0" class="hidden">
  <symbol xmlns="http://www.w3.org/2000/svg" viewBox="0 0 30.282 32.706" id="i-cheap">
    <g >
      <path d="M12.15 4.542a.9.9 0 11.888-.926.887.887 0 01-.888.926zm8.9 8.932H3.75v1.532h15.779zm-3.766 3.796H3.746v1.532h12.017zm-3.766 3.796H3.746v1.532h8.251z"></path>
      <path d="M29.729 12.764c-.474-.474-.947-.951-1.423-1.422a1.231 1.231 0 00-1.93 0q-6.438 6.433-12.868 12.878a.7.7 0 00-.18.44c-.015.969-.008 1.938-.007 2.907 0 .09.016.181.025.285 1.049 0 2.07-.006 3.09.005a.67.67 0 00.526-.226q2.86-2.875 5.734-5.739c.083-.083.171-.162.289-.273.009.113.015.155.015.2v8.431a1.359 1.359 0 01-.051.376 1.223 1.223 0 01-1.328.868H2.749c-1.1 0-1.535-.435-1.535-1.52V8.798c0-.117 0-.234.006-.351a1.2 1.2 0 011.264-1.169h2.375v2.4h14.542v-2.4h2.261a1.2 1.2 0 011.343 1.335v3.993c0 .1.009.2.017.343.4-.4.778-.756 1.139-1.128a.411.411 0 00.07-.264c0-.99.02-1.981 0-2.971a2.416 2.416 0 00-2.6-2.527c-.724 0-1.448-.01-2.171.005a.364.364 0 01-.4-.264 3.373 3.373 0 00-2.056-1.929 2.146 2.146 0 01-1.5-1.5 3.3 3.3 0 00-.993-1.459 4.171 4.171 0 00-1.937-.91h-.945a.66.66 0 01-.116.051 3.573 3.573 0 00-2.841 2.461A1.993 1.993 0 017.32 3.835a3.462 3.462 0 00-2.159 1.99.347.347 0 01-.385.238 80.423 80.423 0 00-2.141 0 3.2 3.2 0 00-.727.062 2.406 2.406 0 00-1.9 2.494V30.05a2.443 2.443 0 002.66 2.658h18.901c.138 0 .277.005.415-.008a2.4 2.4 0 001.682-.865 2.645 2.645 0 00.572-1.81c0-3.109 0-6.218-.006-9.327a.748.748 0 01.244-.584q2.64-2.624 5.267-5.258a1.275 1.275 0 00-.014-2.092zM6.076 7.094a2.3 2.3 0 011.613-2.1 3.114 3.114 0 002.149-2.162 1.748 1.748 0 01.187-.4 2.3 2.3 0 012.2-1.2 2.232 2.232 0 012.128 1.56 3.234 3.234 0 002.218 2.223 2.24 2.24 0 01.734.431 2.2 2.2 0 01.832 1.657c.018.445 0 .89 0 1.356H6.074c0-.473-.037-.923.007-1.365zm10.412 19.185a1.052 1.052 0 01-1.488 0l-.133-.133a1.052 1.052 0 010-1.488l.807-.808 1.621 1.622zm1.416-1.409l-1.625-1.628 7.633-7.637 1.633 1.628zm8.612-8.567l-1.648-1.643.748-.772 1.662 1.655zm1.635-1.64c-.266-.283-.533-.582-.815-.865s-.569-.538-.858-.808l.827-.826 1.674 1.685c-.233.235-.503.5-.823.814z"></path>
    </g>
  </symbol>
</svg>
 -->






<svg width="0" height="0" class="hidden">
  <symbol xmlns="http://www.w3.org/2000/svg" viewBox="0 0 30.282 32.706" id="i-cheap">
    <g >
      <path d="M12.15 4.542a.9.9 0 11.888-.926.887.887 0 01-.888.926zm8.9 8.932H3.75v1.532h15.779zm-3.766 3.796H3.746v1.532h12.017zm-3.766 3.796H3.746v1.532h8.251z"></path>
      <path d="M29.729 12.764c-.474-.474-.947-.951-1.423-1.422a1.231 1.231 0 00-1.93 0q-6.438 6.433-12.868 12.878a.7.7 0 00-.18.44c-.015.969-.008 1.938-.007 2.907 0 .09.016.181.025.285 1.049 0 2.07-.006 3.09.005a.67.67 0 00.526-.226q2.86-2.875 5.734-5.739c.083-.083.171-.162.289-.273.009.113.015.155.015.2v8.431a1.359 1.359 0 01-.051.376 1.223 1.223 0 01-1.328.868H2.749c-1.1 0-1.535-.435-1.535-1.52V8.798c0-.117 0-.234.006-.351a1.2 1.2 0 011.264-1.169h2.375v2.4h14.542v-2.4h2.261a1.2 1.2 0 011.343 1.335v3.993c0 .1.009.2.017.343.4-.4.778-.756 1.139-1.128a.411.411 0 00.07-.264c0-.99.02-1.981 0-2.971a2.416 2.416 0 00-2.6-2.527c-.724 0-1.448-.01-2.171.005a.364.364 0 01-.4-.264 3.373 3.373 0 00-2.056-1.929 2.146 2.146 0 01-1.5-1.5 3.3 3.3 0 00-.993-1.459 4.171 4.171 0 00-1.937-.91h-.945a.66.66 0 01-.116.051 3.573 3.573 0 00-2.841 2.461A1.993 1.993 0 017.32 3.835a3.462 3.462 0 00-2.159 1.99.347.347 0 01-.385.238 80.423 80.423 0 00-2.141 0 3.2 3.2 0 00-.727.062 2.406 2.406 0 00-1.9 2.494V30.05a2.443 2.443 0 002.66 2.658h18.901c.138 0 .277.005.415-.008a2.4 2.4 0 001.682-.865 2.645 2.645 0 00.572-1.81c0-3.109 0-6.218-.006-9.327a.748.748 0 01.244-.584q2.64-2.624 5.267-5.258a1.275 1.275 0 00-.014-2.092zM6.076 7.094a2.3 2.3 0 011.613-2.1 3.114 3.114 0 002.149-2.162 1.748 1.748 0 01.187-.4 2.3 2.3 0 012.2-1.2 2.232 2.232 0 012.128 1.56 3.234 3.234 0 002.218 2.223 2.24 2.24 0 01.734.431 2.2 2.2 0 01.832 1.657c.018.445 0 .89 0 1.356H6.074c0-.473-.037-.923.007-1.365zm10.412 19.185a1.052 1.052 0 01-1.488 0l-.133-.133a1.052 1.052 0 010-1.488l.807-.808 1.621 1.622zm1.416-1.409l-1.625-1.628 7.633-7.637 1.633 1.628zm8.612-8.567l-1.648-1.643.748-.772 1.662 1.655zm1.635-1.64c-.266-.283-.533-.582-.815-.865s-.569-.538-.858-.808l.827-.826 1.674 1.685c-.233.235-.503.5-.823.814z"></path>
    </g>
  </symbol>
  <symbol xmlns="http://www.w3.org/2000/svg" viewBox="0 0 88.527 76.992" id="i-card-4">
    <g transform="translate(1 1)" fill="none" stroke="#00733b" stroke-miterlimit="10" stroke-width="2">
      <path d="M80.678 47.48h0a9.193 9.193 0 00-5.859 5.859h0a9.19 9.19 0 00-5.858-5.859h0a9.186 9.186 0 005.858-5.858h0a9.19 9.19 0 005.859 5.858zM57.833 60.382v-3.354h7.152v3.354"></path>
      <path d="M59.411 57.032V1.994a2 2 0 012-2h0a2 2 0 012 2v55.038m-20.595 3.35h37.182a1.388 1.388 0 011.388 1.388v2.992h0-39.958 0V61.77a1.388 1.388 0 011.388-1.388zM9.857 74.994h75.144l-3.616-10.232m-39.957 0L37.813 74.99m7.589-10.228l-2.847 10.227m6.835-10.234L47.278 75m6.108-10.245L52.002 75m5.393-10.245l-.68 10.234m4.692-10.227v10.227m16.005-10.227L80.259 75m-6.835-10.245L75.536 75m-6.107-10.238L70.813 75m-5.386-10.238l.683 10.227"></path>
      <path d="M59.42 30.217H.1v7.5h20.531m31.159-.001h7.623"></path>
      <path d="M20.63 30.217v8.643l-5.77 7.432a1.6 1.6 0 00.283 2.25h0a1.6 1.6 0 002.249-.284l3.238-4.17v9.061a1.718 1.718 0 001.719 1.719h9.385a1.719 1.719 0 001.719-1.719V30.217zm3.206 14.537v10.115m3.206-10.115v10.115m3.205-10.115v10.115M10.115 37.72v17.042"></path>
      <circle cx="10.115" cy="10.115" r="10.115" transform="translate(0 54.762)"></circle>
      <circle cx="4.459" cy="4.459" r="4.459" transform="translate(5.656 60.418)"></circle>
      <path d="M51.785 30.221v20.668h-18.35m.005-5.085h18.354M15.708 30.217v-7.992a4.333 4.333 0 014.333-4.333h9.079a4.333 4.333 0 014.333 4.333v7.992"></path>
      <path d="M20.636 30.217v-4.983a2.889 2.889 0 012.888-2.889h2.5a2.89 2.89 0 012.889 2.889v4.983m-6.324-19.76h4.372a1.953 1.953 0 011.953 1.953v5.482h0-8.278 0V12.41a1.953 1.953 0 011.953-1.953zM55.601 30.21l-5.967-11.544 4.2-6.136-3.317-5.527H35.985v3.648l5.377 2.394a4.161 4.161 0 012.468 3.763l.043 4.674a6.725 6.725 0 01-.843 3.32l-3 5.419"></path>
      <path d="M40.625 7.009v5.777a10.884 10.884 0 01-1.76 5.932L37.64 20.6m6.209-1.934h5.785m34.689 16.95h0a5.257 5.257 0 00-3.353 3.353h0a5.259 5.259 0 00-3.353-3.353h0a5.262 5.262 0 003.353-3.354h0a5.26 5.26 0 003.353 3.354z"></path>
    </g>
  </symbol>
  <symbol xmlns="http://www.w3.org/2000/svg" viewBox="0 0 73.714 75" id="i-card-5">
    <g fill="#00733b">
      <path d="M70.804 62.284h-2.783c.154-.223.222-.326.294-.426a7.639 7.639 0 00-6.235-12.285H49.562V25.532a8.72 8.72 0 00-7.109-8.869.832.832 0 01-.492-.6 23.962 23.962 0 01-.012-2.778c.056-.989-.195-1.723-1.282-1.9v-9.92c0-.971-.446-1.453-1.371-1.455-4.13-.009-8.259-.015-12.388 0a2.783 2.783 0 00-2.749 2.728c-.018.714-.01 1.429 0 2.144.01 1.006.449 1.46 1.442 1.467 1.4.01 2.806 0 4.209 0 .226 0 .452.03.674.046v4.979c-1.033.349-1.24.628-1.242 1.669 0 1.006.029 2.014-.024 3.017a.83.83 0 01-.5.6 8.723 8.723 0 00-7.1 8.874v12.921c-.629-.119-1.141-.264-1.661-.306-1.787-.145-2.243-.657-2.121-2.465 1.1-.447 1.233-.653 1.234-1.894 0-1.483.01-2.965 0-4.448a1.229 1.229 0 00-1.37-1.376q-4.963-.015-9.927 0c-.945 0-1.393.466-1.4 1.426-.01 1.509 0 3.018 0 4.527 0 1.1.182 1.357 1.249 1.746.062 1.734-.437 2.4-1.789 2.467a5.993 5.993 0 00-5.811 6.037q-.013 12.349 0 24.7a5.987 5.987 0 006.133 6.114q6.591.011 13.182 0a6.471 6.471 0 001.181-.1c.692-.131 1.374-.537 2.057.062.109.1.358.043.543.043q22.037 0 44.074.006a1.34 1.34 0 001.468-1.145c.316-1.3.659-2.6 1-3.944h1.214c1.153-.007 1.573-.422 1.575-1.576q.006-2.224 0-4.447c-.015-1.196-.425-1.595-1.645-1.598zM30.46 3.774h-3.713c-.13-1.221-.121-1.232.988-1.233h2.725zM8.928 30.546h7.531v2.446H8.928zm13.946 38.239a3.508 3.508 0 01-3.653 3.661q-6.512.027-13.023 0a3.525 3.525 0 01-3.655-3.661c-.012-.868 0-1.736 0-2.694h11c1.328 0 1.713-.376 1.713-1.677v-17c0-1.265-.391-1.656-1.652-1.657H2.666c-.67-3.353 1.342-5.115 3.714-5.119a4.019 4.019 0 003.789-3.88c.011-.364 0-.728 0-1.175h5.092v.942a4.092 4.092 0 004.034 4.142 3.523 3.523 0 013.584 3.654q.015 12.234-.007 24.464zM2.582 63.519V48.363h10.074v15.158zM33.106 2.6h4.99v8.8h-4.99zm-1.3 11.422h7.531v2.45h-7.531zm-7.654 26.059c-.016-1.031-.007-2.062-.007-3.158h12.654V54.6H25.415c0-3.274-.029-6.5.013-9.722a6.871 6.871 0 00-1.109-4.21 1.1 1.1 0 01-.167-.587zm22.874 32.307H24.437a3.576 3.576 0 00.237-.536 13.673 13.673 0 00.708-2.962c.086-3.571.034-7.145.034-10.718v-.977h12.313c1.268 0 1.667-.392 1.667-1.643V35.94c0-1.211-.4-1.615-1.613-1.616H24.158c0-3.174-.064-6.218.017-9.259a6.109 6.109 0 016.026-5.976q5.4-.108 10.8 0a6.167 6.167 0 016.022 5.994c.015.29.01.582.01.873v45.5zm2.591-20.278c3.276 0 6.5-.008 9.72 0a25.429 25.429 0 013.716.115 5.035 5.035 0 01-.464 10.008c-4.3.115-8.612.031-12.973.031zm16.752 20.3h-16.76v-2.465H66.95zm3.473-5.073H49.608v-2.478h20.234z"></path>
      <path d="M57.131 29.265a5.1 5.1 0 10-5.056-5.152 5.071 5.071 0 005.056 5.152zm.068-7.655a2.55 2.55 0 11-2.57 2.528 2.615 2.615 0 012.571-2.527zm-5.124 20.331a5.1 5.1 0 105.1-5.1 5.066 5.066 0 00-5.1 5.1zm7.655-.006a2.55 2.55 0 11-2.557-2.545 2.619 2.619 0 012.557 2.545zm10.153-11.442a3.826 3.826 0 103.831 3.76 3.8 3.8 0 00-3.831-3.76zm.041 5.1a1.272 1.272 0 111.232-1.311 1.331 1.331 0 01-1.231 1.308zM44.485 62.338a1.274 1.274 0 10-2.541-.037q-.022 1.835 0 3.671a1.241 1.241 0 001.251 1.351 1.255 1.255 0 001.291-1.394c.011-.585 0-1.171 0-1.756.001-.611.011-1.223-.001-1.835zm-1.249-7.693a1.24 1.24 0 00-1.292 1.228c-.015.212 0 .426 0 .638 0 .24-.013.48 0 .718a1.241 1.241 0 001.285 1.236 1.229 1.229 0 001.249-1.19 11.4 11.4 0 000-1.436 1.226 1.226 0 00-1.242-1.194zm18.494 1.089a1.311 1.311 0 00.27-1.9 1.294 1.294 0 00-1.965-.031 3.511 3.511 0 01-2.417.851q-2.073-.017-4.146 0a1.246 1.246 0 00-1.4 1.284 1.26 1.26 0 001.422 1.259c.824.01 1.647 0 2.471 0 .717 0 1.435.008 2.153 0a5.4 5.4 0 003.612-1.463z"></path>
    </g>
  </symbol>
  <symbol xmlns="http://www.w3.org/2000/svg" viewBox="0 0 75.484 77" id="i-card-6">
    <g transform="translate(1 1)" fill="none" stroke="#00733b" stroke-miterlimit="10" stroke-width="2">
      <path d="M21.44 65.871h52.044V75H21.44zm3.993-6.227v6.237m44.06-.015V31.354a13.925 13.925 0 00-7.62-12.416l-12.234-6.213H24.207a2.765 2.765 0 00-2.766 2.766v7.02h3.993v7.265m-1.93-7.265h42.758"></path>
      <path d="M25.577 12.725v-4.7a1.648 1.648 0 011.65-1.646h15.719a1.648 1.648 0 011.65 1.646v4.7m-16.59-6.359V1.804a1.8 1.8 0 011.8-1.8h10.557a1.8 1.8 0 011.8 1.8v4.562"></path>
      <rect width="8.035" height="30.323" rx="4.001" transform="translate(56.504 29.581)"></rect>
      <path d="M30.51 34.178h17.423v21.129H30.51"></path>
      <circle cx="17.084" cy="17.084" r="17.084" transform="translate(0 27.659)"></circle>
      <path d="M5.019 56.808l24.134-24.134M9.159 45.938c.148 1.186-.108 3.41-1.7 3.41a4.11 4.11 0 01-3.707-3.484c-.192-1.668.407-2.728 2-2.817a3.186 3.186 0 013.407 2.891zm14.128 7.228c.131 1.05-.1 3.018-1.509 3.018a3.639 3.639 0 01-3.282-3.084 2.361 2.361 0 012.154-2.79c1.368-.074 2.415 1.08 2.637 2.856zm2.627-4.855c-1.2.306-3.669.382-4-2.892-.371-3.633-1.112-5.412-4.152-5.412-3.781 0-6.606-.613-5.709-4.151 1.261-4.968 11.269-2.15 14.16 1.26 2.432 2.871 4.142 10.055-.299 11.195zm8.254-3.568h5.164"></path>
      <circle cx="2.558" cy="2.558" r="2.558" transform="translate(39.332 42.185)"></circle>
    </g>
  </symbol>
  <symbol xmlns="http://www.w3.org/2000/svg" viewBox="0 0 65.485 78.422" id="i-line-1">
    <g transform="translate(1 1.005)" fill="none" stroke="#00733b" stroke-miterlimit="10" stroke-width="2">
      <path d="M36.752 58.161H0v-7.9a8.235 8.235 0 016.885-8.123h0a80.31 80.31 0 0010.459-2.032 5.212 5.212 0 003.667-4.979v-2.974m15.29.001v2.974a5.212 5.212 0 003.667 4.979c.539.168 1.094.32 1.659.461"></path>
      <path d="M15.152 17.575a6.356 6.356 0 00-1.26 4.148c.287 3.371 2.144 5.3 4.847 5.526 1.47 5.172 5.335 9.677 9.917 9.677s8.446-4.505 9.917-9.677c2.7-.223 4.657-2.315 4.846-5.526a6.593 6.593 0 00-1.261-4.151m-10.459-3.477c1.808.675 10.459 3.477 10.459 3.477a14.285 14.285 0 00-5.911-15.026C31.663-.599 26.173-.546 23.819 1.164c-2.237 1.626-.404 9.841 7.88 12.931z"></path>
      <path d="M24.705 8.67c-3.638 1.074-3.927 5.259-4.2 7.382l-5.35 1.523a18.386 18.386 0 01-.28-3.942 12.763 12.763 0 013.252-8.742c2.842-3.021 5.188-2.914 5.188-2.914m24.413 62.467l6.094 10.555 2.136-6.336 6.555 1.318-5.515-9.548m-18.538.001l-5.518 9.548 6.555-1.318L41.633 75l6.094-10.555"></path>
      <circle cx="12.717" cy="12.717" r="12.717" transform="translate(35.01 39.018)"></circle>
      <path d="M47.761 45.661l1.966 3.984 4.4.639-3.182 3.1.751 4.379-3.933-2.068-3.933 2.068.751-4.379-3.182-3.1 4.4-.639zm-8.655-3.28a17.152 17.152 0 01-10.535 3.366c-5.313 0-9.956-2.117-12.469-5.272"></path>
    </g>
  </symbol>
  <symbol xmlns="http://www.w3.org/2000/svg" viewBox="0 0 77.414 77.414" id="i-line-2">
    <g transform="translate(1 1)" fill="none" stroke="#00733b" stroke-miterlimit="10" stroke-width="2">
      <path d="M47.592 12.64a24.942 24.942 0 013.047 3.271M6.442 33.528q-.118-1.21-.119-2.45a24.692 24.692 0 018.3-18.494M7.845 39.637a24.626 24.626 0 01-.955-3.277"></path>
      <circle cx="31.08" cy="31.08" r="31.08"></circle>
      <path d="M58.664 61.232l-6.937-6.937m2.565-2.571l6.94 6.94m-4.504 4.499l6.435-6.435h0L74.09 67.657a1.284 1.284 0 010 1.816l-4.619 4.618a1.284 1.284 0 01-1.816 0L56.728 63.163h0zM25.894 30.08v2.037a3.567 3.567 0 01-2.51 3.406 55.011 55.011 0 01-7.155 1.39h0a5.631 5.631 0 00-4.71 5.556v3.78a24.755 24.755 0 0040.916-27.691"></path>
      <path d="M36.352 30.091v2.025a3.567 3.567 0 002.509 3.407 55.046 55.046 0 007.156 1.39h0a5.633 5.633 0 014.71 5.557v3.662"></path>
      <path d="M21.885 20.112a4.349 4.349 0 00-.862 2.837c.2 2.307 1.467 3.629 3.316 3.782 1.006 3.538 3.65 6.62 6.785 6.62s5.779-3.082 6.785-6.62a3.679 3.679 0 003.316-3.782 4.506 4.506 0 00-.863-2.839"></path>
      <path d="M33.204 17.732c1.237.462 7.156 2.38 7.156 2.38a9.773 9.773 0 00-4.044-10.281c-3.136-2.152-6.893-2.115-8.5-.945-1.533 1.113-.278 6.732 5.388 8.846z"></path>
      <path d="M27.995 14.219c-1.691.87-2.26 3.4-2.449 4.852l-3.661 1.042a12.562 12.562 0 01-.192-2.7 8.735 8.735 0 012.225-5.981c1.946-2.067 3.55-1.994 3.55-1.994m12.1 26.293l-.01.013a11.77 11.77 0 01-16.97.018l-.008-.012"></path>
    </g>
  </symbol>
  <symbol xmlns="http://www.w3.org/2000/svg" viewBox="0 0 76.475 77" id="i-line-3">
    <g transform="translate(.08 1)" fill="none" stroke="#00733b" stroke-miterlimit="10" stroke-width="2">
      <circle cx="8.33" cy="8.33" r="8.33" transform="translate(24.884 58.34)"></circle>
      <circle cx="2.489" cy="2.489" r="2.489" transform="translate(30.724 64.181)"></circle>
      <path d="M24.884 66.67h-4.912l-9.87-33.77 15.741-21.246h16.814a29.647 29.647 0 0127.608 18.833l2.39 6.447v25.984h-31.99"></path>
      <path d="M72.652 36.934s-36.38-.241-53.369-16.4C16.892 18.26 9.135-.004 9.135-.004H2.782A1.862 1.862 0 00.92 1.857v1.668h5.245l18.719 63.141m42.57-41.611c-5.915-.368-29.342-3-41.611-13.4m43.564 56.411l1.761 6.933m-5.006-6.933l1.174 6.933m-4.418-6.933l.587 6.933m-13.567-6.933l-1.761 6.933m5.006-6.933l-1.174 6.933m4.419-6.933l-.587 6.933m3.832-6.933v6.933m-3.245-6.932V62.92m6.49 0v5.147M44.346 75l2.348-6.933h25.958L75 75H44.346zm24.45-32.54v16.653M33.213 75H0m19.954-4.165H6.125m9.074-4.165H0"></path>
    </g>
  </symbol>
  <symbol xmlns="http://www.w3.org/2000/svg" viewBox="0 0 77.992 77" id="i-line-4">
    <g transform="translate(1 1)" fill="none" stroke="#00733b" stroke-miterlimit="10" stroke-width="2">
      <rect width="5.146" height="8.633" rx=".5" transform="translate(8.716)"></rect>
      <rect width="5.146" height="8.633" rx=".5" transform="translate(36.606)"></rect>
      <path d="M31.976 49.475H3.318A3.318 3.318 0 010 46.161V7.587a3.319 3.319 0 013.318-3.318h5.4m33.035 0h5.4a3.318 3.318 0 013.318 3.318v23.452M13.861 4.27h22.738M0 13.11h50.468"></path>
      <path d="M6.807 19.949h8.965v8.965H6.807zm0 13.723h8.965v8.965H6.807zm19.061 8.964h-5.117v-8.965h8.965v.921m-8.964-14.643h8.965v8.965h-8.965zm14.59 8.964h-.645v-8.965h8.965v4.913"></path>
      <circle cx="25.524" cy="25.524" r="25.524" transform="translate(24.944 23.951)"></circle>
      <path d="M50.468 34.626v14.849l7.74 7.749M50.468 75v-7.088m9.218-34.403l1.589-2.752M39.661 68.194l1.589-2.752m25.184-25.184l2.752-1.589M31.75 60.283l2.752-1.589m31.932 0l2.752 1.589M31.75 38.669l2.752 1.589m25.184 25.184l1.589 2.752M39.661 30.757l1.589 2.752"></path>
      <circle cx="1.749" cy="1.749" r="1.749" transform="translate(48.719 47.727)"></circle>
      <path d="M75.992 49.476h-7.088"></path>
    </g>
  </symbol>
  <symbol xmlns="http://www.w3.org/2000/svg" viewBox="0 0 76.609 78.421" id="i-line-5">
    <g transform="translate(1 1.004)" fill="none" stroke="#00733b" stroke-miterlimit="10" stroke-width="2">
      <path d="M11.361 23.198v2.5a2.818 2.818 0 01-1.983 2.692 43.481 43.481 0 01-5.655 1.1h0A4.451 4.451 0 000 33.882v24.845m19.628-35.529v2.5a2.819 2.819 0 001.455 2.464"></path>
      <path d="M8.193 15.311a3.432 3.432 0 00-.681 2.243c.155 1.822 1.159 2.867 2.62 2.988.8 2.8 2.885 5.232 5.362 5.232s4.567-2.436 5.362-5.232a2.907 2.907 0 002.62-2.988 3.565 3.565 0 00-.681-2.244m-3.849 17.116l-3.5 3.953-6.707-7.8m44.925-.495a2.82 2.82 0 001.318-2.387v-1.6m8.266.001v1.6a2.818 2.818 0 001.983 2.692 43.515 43.515 0 005.655 1.1h0a4.451 4.451 0 013.723 4.392v24.74"></path>
      <path d="M65.882 28.575a7.072 7.072 0 01-6.864 6.84 6.5 6.5 0 01-3.1-.851M23.656 52.362l-4.71-3.659V32.426a5.312 5.312 0 014.442-5.24h0a51.88 51.88 0 006.747-1.311 3.362 3.362 0 002.366-3.212v-1.917"></path>
      <path d="M42.365 20.741v1.921a3.362 3.362 0 002.365 3.212 51.86 51.86 0 006.748 1.311h0a5.313 5.313 0 014.442 5.24v17.137l-4.939 3.66"></path>
      <path d="M28.721 11.339a4.1 4.1 0 00-.813 2.676c.185 2.174 1.383 3.421 3.127 3.565.949 3.337 3.442 6.243 6.4 6.243s5.449-2.906 6.4-6.243a3.469 3.469 0 003.127-3.565 4.261 4.261 0 00-.813-2.678m-6.753-2.243c1.166.435 6.748 2.243 6.748 2.243a9.218 9.218 0 00-3.814-9.694c-2.957-2.029-6.5-1.995-8.018-.891-1.443 1.049-.26 6.348 5.084 8.342z"></path>
      <path d="M34.785 5.44c-1.944.836-2.434 3.547-2.613 4.916l-3.451.983a11.845 11.845 0 01-.181-2.543 8.237 8.237 0 012.1-5.64c1.834-1.949 3.347-1.88 3.347-1.88m11.524 24.646a11.045 11.045 0 01-16.193.087m8.205 37.406l6.689 11.586 2.369-7.029 7.272 1.462-6.078-10.545m-20.573.138l-6.009 10.407 7.272-1.462 2.369 7.029 6.689-11.586"></path>
      <circle cx="14.109" cy="14.109" r="14.109" transform="translate(23.321 35.194)"></circle>
      <path d="M31.64 49.303l4.59 4.7 9.18-9.4M8.061 15.262l2.641.916a9.891 9.891 0 01.232-3.345 4.683 4.683 0 014.39-2.557c2.583.026 3.517.483 4.494 1.627.9 1.059.975 3.811.975 3.811l2.246-.464s.537-3.931-.923-6.471c-.935-1.627-2.7-2.391-4.416-2.97a12.789 12.789 0 01-4.028-1.988l.129 2.453-2.583-1.679v1.679a7.147 7.147 0 00-2.582 3.047c-.956 2.095-.575 5.941-.575 5.941zm53.574-5.212s-2.177 3.02-4.859 3.779c-2.7.765-6.621-.462-6.621-.462"></path>
      <path d="M50.099 26.927V14.378a9.172 9.172 0 019.172-9.171h.39a9.172 9.172 0 019.172 9.171v14.793"></path>
      <path d="M59.958 11.896s1.162 1.422 5 1.413l-.392 6.617a8.209 8.209 0 01-1.13 3.874 4.688 4.688 0 01-8.642 0 8.344 8.344 0 01-1.145-3.845l-.415-5.963"></path>
    </g>
  </symbol>
  <symbol xmlns="http://www.w3.org/2000/svg" viewBox="0 0 38.715 41.225" id="i-phone">
    <g fill="none" stroke="#2da34a" stroke-miterlimit="10" stroke-width="2">
      <path d="M25.74 16.31c1.438.635 2.182 1.922.488 5.554s-3.165 3.906-4.568 3.198-3.663-1.978-4.807-1.61c-1.864.631-5.303 5.297-6.07 9.211a2.066 2.066 0 00.704 1.958 6.91 6.91 0 007.144 1.346h0c5.425-1.84 9.64-9.303 11.118-12.47s4.482-11.19 2.406-16.532h0a6.912 6.912 0 00-5.623-4.608 2.067 2.067 0 00-1.952.72c-2.506 3.103-3.87 8.737-3.156 10.571.445 1.126 2.877 2.025 4.317 2.662zm2.904-13.198c-3.04 3.768-4.693 10.599-3.827 12.823M13.416 35.77c.932-4.752 5.103-10.408 7.362-11.175M4.303 22.9a16.6 16.6 0 018.914-18.536m2.104 4.647a9.6 9.6 0 00-5.575 5.226 9.764 9.764 0 00-.56 7.295"></path>
      <path d="M9.188 21.53a9.764 9.764 0 01.56-7.296 9.6 9.6 0 015.574-5.225m-2.105-4.645A16.6 16.6 0 004.303 22.9"></path>
    </g>
  </symbol>
  <symbol xmlns="http://www.w3.org/2000/svg" viewBox="0 0 74.357 64.922" id="house">
    <g fill="#2da34a">
      <path d="M52.828 35.355h-10.1a5.019 5.019 0 00-5.014 5.014v7.749a5.019 5.019 0 005.014 5.014h10.1a5.019 5.019 0 005.014-5.014v-7.749a5.019 5.019 0 00-5.014-5.014zm1.367 12.763a1.371 1.371 0 01-1.367 1.367h-10.1a1.371 1.371 0 01-1.367-1.367v-7.749a1.371 1.371 0 011.367-1.367h10.1a1.371 1.371 0 011.367 1.367z"></path>
      <path d="M74.357 21.271a1.692 1.692 0 00-.243-.9L63.053.927A1.833 1.833 0 0061.473 0h-48.6a1.8 1.8 0 00-1.58.927L.243 20.375a1.843 1.843 0 00-.243.9 10.666 10.666 0 006.381 9.754v32.07A1.829 1.829 0 008.2 64.922h57.938a1.829 1.829 0 001.823-1.823V31.25a.8.8 0 00-.015-.2 10.7 10.7 0 006.411-9.779zM13.933 3.662H60.41l8.645 15.208H5.3zm38.987 18.84a7.007 7.007 0 01-13.8 0zm-17.67 0a7.016 7.016 0 01-13.811 0zm-31.481 0h13.81a7.016 7.016 0 01-13.811 0zM30.63 61.276H20.147V41.6a2.6 2.6 0 012.6-2.6h5.3a2.6 2.6 0 012.6 2.6v19.676zm33.684 0H34.277V41.6a6.254 6.254 0 00-6.245-6.245h-5.3a6.254 6.254 0 00-6.245 6.245v19.691h-6.459V31.922c.213.015.425.015.638.015a10.652 10.652 0 008.843-4.71 10.656 10.656 0 0017.685 0 10.627 10.627 0 0017.655 0 10.652 10.652 0 008.843 4.71c.213 0 .41-.015.623-.015v29.354zm-.622-32.986a7 7 0 01-6.9-5.774H70.6a7.046 7.046 0 01-6.908 5.774z"></path>
    </g>
  </symbol>
  <symbol xmlns="http://www.w3.org/2000/svg" viewBox="0 0 82.421 77.414" id="i-card-2">
    <g fill="none" stroke="#00733b" stroke-miterlimit="10" stroke-width="2">
      <path d="M22.503 46.328L11.134 34.963a1.9 1.9 0 010-2.694l4.391-4.392 35.339 35.339-4.392 4.391a1.9 1.9 0 01-2.694 0l-11.37-11.369"></path>
      <path d="M24.035 50.398l-2.591-2.59a.31.31 0 010-.437l3.35-3.349a.309.309 0 01.436 0l9.487 9.487a.309.309 0 010 .436l-3.35 3.35a.309.309 0 01-.436 0l-2.6-2.6"></path>
      <path d="M25.598 49.32l3.824 3.824a.344.344 0 010 .486l-21.6 21.6a1.09 1.09 0 01-1.541 0l-2.769-2.77a1.09 1.09 0 010-1.541l21.6-21.6a.344.344 0 01.486 0zm-7.144 6.651V42.286"></path>
      <path d="M18.478 30.788V1h62.94v72.633h-62.94v-9.035"></path>
      <path d="M61.289 14.747h0a11.5 11.5 0 00-7.329 7.329h0a11.5 11.5 0 00-7.33-7.329h0a11.5 11.5 0 007.33-7.329h0a11.5 11.5 0 007.329 7.329zm-49.883 5.702h0a6.429 6.429 0 00-4.1 4.1h0a6.429 6.429 0 00-4.1-4.1h0a6.429 6.429 0 004.1-4.1h0a6.429 6.429 0 004.1 4.1zm52.995 18.577h0a6.438 6.438 0 00-4.1 4.1h0a6.434 6.434 0 00-4.1-4.1h0a6.43 6.43 0 004.1-4.1h0a6.434 6.434 0 004.1 4.1zM40.186 10.93l9.917-9.917M19.392 31.724l16.173-16.173m10.037 24.497l18.456-18.456M22.079 34.395l8.816-8.816m13.351 30.982l11.493-11.493M48.69 61.012l32.749-32.749"></path>
    </g>
  </symbol>
  <symbol xmlns="http://www.w3.org/2000/svg" viewBox="0 0 77.298 76" id="i-card-3">
    <g transform="translate(1 1)" fill="none" stroke="#00733b" stroke-miterlimit="10" stroke-width="2">
      <path d="M52.1 43.271V1.991A2 2 0 0154.1 0h.006a2 2 0 012 1.991v41.28m2.028.009h-8.059l-3.523 9.691h15.1zM46.54 52.971L33.423 71.012v3.993"></path>
      <path d="M49.062 52.942l-8.745 18.281v3.778m11.266-22.084l-4.372 18.521v3.563m6.893-22.109V75m7.564-22.029l13.117 18.041v3.993M59.147 52.942l8.745 18.281v3.778M56.625 52.917l4.372 18.521v3.563M0 35.331l7.375-8.207 7.375 8.207v35.6H0zm37.342 30.287V35.331l7.375-8.207 7.375 8.207m-33.419 0l7.375-8.207 7.375 8.207v35.6h-14.75zM14.75 45.646h3.96m14.713 0h3.921M14.75 58.808h3.96m14.714 0h3.919"></path>
      <circle cx="2.477" cy="2.477" r="2.477" transform="translate(68.84 50.748)"></circle>
      <path d="M74.887 40.417c-1.481 4.778-7.73 5.267-7.73 5.267s-4.877-3.938-3.4-8.716 8.759-8.587 8.759-8.587 3.852 7.257 2.371 12.036zm-7.73 5.267l5.363-17.303m-6.624 5.069l3.047 6.48M21.439 10.094a4.129 4.129 0 00-1.614.327 3.937 3.937 0 00-7.758.955v.029c-.1-.008-.192-.029-.293-.029a3.494 3.494 0 100 6.988h9.662a4.135 4.135 0 100-8.27zm17.996-5.285a3.182 3.182 0 00-1.245.252 3.038 3.038 0 00-5.987.737v.023c-.076-.007-.149-.023-.227-.023a2.7 2.7 0 000 5.393h7.456a3.191 3.191 0 100-6.382z"></path>
    </g>
  </symbol>


  <symbol xmlns="http://www.w3.org/2000/svg" viewBox="0 0 77.21 77" id="i-card-1">
    <g transform="translate(3.202 1)" fill="none" stroke="#00733b" stroke-miterlimit="10" stroke-width="2">
      <rect width="11.708" height="4.091" rx="1.625" transform="translate(46.764 14.417)"></rect>
      <path d="M45.305 64.771L48.92 75m22.33-32.888l-4.035 29.933a3.414 3.414 0 01-3.383 2.958h-62.1l3.615-10.229m28.637-22.665l2.464 18.28m-13.121-3.353V1.99a1.993 1.993 0 012-1.99h0a1.993 1.993 0 012 1.99v55.046"></path>
      <path d="M21.749 60.39v-3.354h7.149v3.354m-22.168 0h37.187a1.388 1.388 0 011.388 1.388v2.993h0H5.342h0v-2.993A1.388 1.388 0 016.73 60.39zm2.587 4.381L6.468 75m6.836-10.229L11.198 75M17.3 64.771L15.916 75m5.391-10.229L20.625 75m4.699-10.229V75M41.33 64.771L44.179 75m-6.835-10.229L39.45 75m-6.103-10.229L34.731 75M29.34 64.771L30.022 75m21.972-32.907h-18.28a1.175 1.175 0 01-1.171-1.077l-.31-3.712a1.176 1.176 0 011.171-1.273h38.427a1.176 1.176 0 011.171 1.273l-.31 3.712a1.175 1.175 0 01-1.171 1.077h-6.686M46.761 16.779a16.521 16.521 0 00-10.906 15.465v3.787m33.524 0v-3.787a16.522 16.522 0 00-10.908-15.467"></path>
      <path d="M51.992 36.031v8.644l-5.77 7.433a1.6 1.6 0 00.283 2.249h0a1.6 1.6 0 002.249-.283l3.238-4.171v9.063a1.719 1.719 0 001.719 1.719h9.386a1.72 1.72 0 001.72-1.719V36.031m-9.619 14.538v10.116m3.206-10.116v10.116m3.206-10.116v10.116M11.719 48.247h0a9.193 9.193 0 00-5.859 5.86h0A9.192 9.192 0 000 48.247h0a9.188 9.188 0 005.86-5.859h0a9.189 9.189 0 005.859 5.859zm5.639-12.161h0a6.243 6.243 0 00-3.98 3.98h0a6.247 6.247 0 00-3.98-3.98h0a6.243 6.243 0 003.98-3.98h0a6.238 6.238 0 003.98 3.98z"></path>
    </g>
    </symbol>



   <symbol xmlns="http://www.w3.org/2000/svg" viewBox="0 0 7.939 13.049" id="shevron-right">
    <path d="M.707.707l5.818 5.818-5.818 5.818" fill="none" stroke="#2da34a" stroke-miterlimit="10" stroke-width="2"></path>
  </symbol>

 <symbol xmlns="http://www.w3.org/2000/svg" viewBox="0 0 32.121 61.414" id="arrow-left-slider">
    <path d="M31.414 60.707l-30-30 30-30" fill="none"  stroke-miterlimit="10" ></path>
  </symbol>

  <symbol xmlns="http://www.w3.org/2000/svg" viewBox="0 0 32.121 61.414" id="arrow-right-slider">
    <path d="M.707.707l30 30-30 30" fill="none"  stroke-miterlimit="10" ></path>
  </symbol>

 <symbol xmlns="http://www.w3.org/2000/svg" viewBox="0 0 144.23 45" id="logo-part-1">
    <g fill="#a8a8a8">
      <path d="M27.685 23.176c0-2.081 1.242-3.531 3.141-3.531s3.141 1.45 3.141 3.531c0 2.058-1.242 3.531-3.141 3.531s-3.141-1.469-3.141-3.531zm16.058-3.584a3.051 3.051 0 00-3.028 3.319 3.112 3.112 0 003.024 3.39 3.216 3.216 0 003.286-3.39 3.171 3.171 0 00-3.282-3.319zm10.463 3.584c0-2.081 1.242-3.531 3.141-3.531s3.141 1.45 3.141 3.531c0 2.058-1.242 3.531-3.141 3.531s-3.141-1.469-3.141-3.531zm19.102.027a3.213 3.213 0 013.258-3.528c1.993 0 3.188 1.473 3.188 3.531s-1.2 3.507-3.188 3.507a3.194 3.194 0 01-3.258-3.51z"></path>
      <path d="M72.115 45c39.828 0 72.115-10.074 72.115-22.5S111.943 0 72.115 0 0 10.073 0 22.5 32.287 45 72.115 45zM23.052 28.364V12.857h-2.86v15.507zm1.75-5.169c0 3.168 2.391 5.419 6.024 5.419s6.024-2.251 6.024-5.419-2.391-5.419-6.024-5.419-6.024 2.251-6.024 5.419zm18.449 4.96a5.071 5.071 0 01-5.436-5.169 5.177 5.177 0 015.532-5.252 4.507 4.507 0 013.868 1.73l.164-1.4h2.532v9.775c0 3.4-2.391 5.586-6.141 5.586-3.188 0-5.509-1.751-5.884-4.439h2.883c.161 1.358 1.38 2.129 3.161 2.129 1.993 0 3.185-1.126 3.185-2.814V26.55a4.732 4.732 0 01-3.864 1.605zm8.072-4.961c0 3.168 2.391 5.419 6.024 5.419s6.024-2.251 6.024-5.419-2.391-5.419-6.024-5.419-6.024 2.252-6.024 5.42zm16.855-8.754a1.62 1.62 0 01-1.711 1.521 1.52 1.52 0 110-3.022 1.618 1.618 0 011.711 1.502zm-.281 3.627v10.3h-2.86v-10.3zm2.505 15.069h2.79v-6.19a4.873 4.873 0 004.032 1.688 5.123 5.123 0 005.415-5.544 5.1 5.1 0 00-5.438-5.336 4.637 4.637 0 00-4.055 1.876l-.164-1.563h-2.58zm17.6-4.5c-2.766 0-4.548-1.313-4.641-3.356h2.6c0 .9.727 1.417 1.992 1.417 1.055 0 1.922-.375 1.922-1.188 0-.584-.469-.9-1.219-1.084l-2.016-.459c-2.227-.521-3.094-1.626-3.094-2.96 0-1.959 1.852-3.251 4.336-3.251 2.508 0 4.219 1.292 4.313 3.335h-2.6c0-.9-.7-1.438-1.782-1.438-1.031 0-1.664.5-1.664 1.209 0 .667.586.938 1.453 1.146l2.039.438c1.9.417 2.93 1.417 2.93 2.9.005 1.997-1.847 3.289-4.566 3.289zm10.5 0a4.707 4.707 0 003.75-1.6l.188 1.334h2.675v-10.3h-2.86v5.4c0 1.855-.8 2.9-2.672 2.9-1.453 0-2.461-.625-2.461-2.751v-5.552h-2.857v6.44a3.864 3.864 0 004.243 4.127zm11.994-6.19v5.919h-2.86v-10.3h2.625l.141 1.167a4.026 4.026 0 013.258-1.48 3.972 3.972 0 013.821 1.959 3.878 3.878 0 013.7-1.959c2.813 0 4.289 1.5 4.289 3.877v6.732h-2.755v-6.146a2.058 2.058 0 00-2.273-2.23 2.273 2.273 0 00-2.438 2.48v5.9h-2.789v-6.15a2.052 2.052 0 00-2.25-2.23 2.284 2.284 0 00-2.463 2.459z" fill-rule="evenodd"></path>
    </g>
  </symbol>

  <symbol xmlns="http://www.w3.org/2000/svg" viewBox="0 0 122.63 45" id="logo-part-2">
    <path d="M73.553 10.151a34.659 34.659 0 00-49.016 0l24.508 24.508z" fill="#c1c1c1"></path>
    <path d="M49.077 34.848a34.66 34.66 0 0049.016 0L73.585 10.34z" fill="#f4f4f4"></path>
    <path d="M49.016 34.843a34.66 34.66 0 01-49.016 0l24.508-24.508zm24.598-24.686a34.659 34.659 0 0149.016 0L98.122 34.665z" fill="#a8a8a8"></path>
  </symbol>


  <symbol xmlns="http://www.w3.org/2000/svg" viewBox="0 0 91.995 45" id="logo-part-4">
    <path d="M22.077 22.076l.2-.042h16.521l6.2 6.207H28.242zm-5.318-.042H-.002l6.207 6.207h10.554zM50.768 4.2h2.574v8h4.421v2.17h-7zm11.669 10.388a5.211 5.211 0 01-2.269-.465 3.707 3.707 0 01-1.512-1.309 3.591 3.591 0 01-.524-1.934 3.517 3.517 0 01.524-1.92 3.571 3.571 0 011.512-1.309 5.6 5.6 0 014.538 0 3.486 3.486 0 012.036 3.228 3.518 3.518 0 01-.538 1.934 3.6 3.6 0 01-1.5 1.309 5.209 5.209 0 01-2.267.466zm0-1.992a1.651 1.651 0 001.222-.451 1.71 1.71 0 00.465-1.265 1.661 1.661 0 00-.465-1.251 1.622 1.622 0 00-1.222-.465 1.672 1.672 0 00-1.236.465 1.691 1.691 0 00-.451 1.251 1.742 1.742 0 00.451 1.265 1.7 1.7 0 001.236.455zm9.112 5.119a7.8 7.8 0 01-1.411-.131 5.779 5.779 0 01-1.206-.349v-1.774a6.563 6.563 0 002.617.494 2.193 2.193 0 001.527-.436 1.642 1.642 0 00.48-1.28v-.422a3 3 0 01-1.047.567 4.116 4.116 0 01-1.309.2 3.966 3.966 0 01-1.948-.465 3.371 3.371 0 01-1.324-1.309 3.939 3.939 0 01-.465-1.934 3.969 3.969 0 01.465-1.949 3.18 3.18 0 011.309-1.294 3.936 3.936 0 011.934-.465 3.465 3.465 0 012.473.916v-.7h2.472v6.5a3.591 3.591 0 01-1.118 2.828 5.014 5.014 0 01-3.449 1.003zm.291-5.1a1.891 1.891 0 001.062-.305 1.633 1.633 0 00.654-.814v-1.227a1.638 1.638 0 00-.669-.8 1.866 1.866 0 00-1.047-.305 1.74 1.74 0 00-1.265.465 1.614 1.614 0 00-.48 1.236 1.629 1.629 0 001.745 1.745zm9.23 1.973a5.209 5.209 0 01-2.269-.465 3.707 3.707 0 01-1.512-1.309 3.591 3.591 0 01-.524-1.934 3.517 3.517 0 01.524-1.92 3.571 3.571 0 011.509-1.309 5.6 5.6 0 014.538 0 3.486 3.486 0 012.036 3.228 3.518 3.518 0 01-.538 1.934 3.6 3.6 0 01-1.5 1.309 5.211 5.211 0 01-2.264.466zm0-1.992a1.652 1.652 0 001.222-.451 1.71 1.71 0 00.465-1.265 1.66 1.66 0 00-.465-1.251 1.623 1.623 0 00-1.222-.465 1.671 1.671 0 00-1.236.465 1.691 1.691 0 00-.451 1.251 1.742 1.742 0 00.451 1.265 1.7 1.7 0 001.236.455zm-30.302 5.515h2.574v10.166h-2.574zm3.877 3.189h2.472v.7a3.467 3.467 0 012.473-.916 3.935 3.935 0 011.934.465 3.179 3.179 0 011.309 1.294 3.886 3.886 0 01.465 1.934 4.021 4.021 0 01-.465 1.949 3.273 3.273 0 01-1.309 1.309 3.883 3.883 0 01-1.934.465 4.115 4.115 0 01-1.338-.218 3 3 0 01-1.047-.567v3.752h-2.56zm4.276 5.2a1.739 1.739 0 001.265-.465 1.681 1.681 0 00.48-1.265 1.633 1.633 0 00-.48-1.251 1.739 1.739 0 00-1.265-.465 1.866 1.866 0 00-1.047.305 1.636 1.636 0 00-.669.8V25.4a1.715 1.715 0 00.669.814 1.934 1.934 0 001.047.286zm8.193 2a9.407 9.407 0 01-1.76-.175 4.572 4.572 0 01-1.454-.465v-1.881a6.049 6.049 0 001.425.582 6.2 6.2 0 001.541.218 2.724 2.724 0 00.742-.073.288.288 0 00.232-.291.312.312 0 00-.16-.276 1.707 1.707 0 00-.552-.233q-.393-.131-.916-.276a7.4 7.4 0 01-1.4-.538 1.892 1.892 0 01-.756-.7 2.073 2.073 0 01-.248-1.062 1.85 1.85 0 01.887-1.687 4.587 4.587 0 012.457-.567 8.378 8.378 0 011.585.16 3.829 3.829 0 011.266.422v1.847a3.863 3.863 0 00-1.163-.48 5.238 5.238 0 00-1.339-.189 2.309 2.309 0 00-.77.1q-.276.087-.276.32t.276.334a7.548 7.548 0 00.989.291c.31.077.441.111.393.1a5.729 5.729 0 011.439.553 1.761 1.761 0 01.713.727 2.208 2.208 0 01.218 1.047 1.847 1.847 0 01-.873 1.6 4.459 4.459 0 01-2.496.592zm7.196 0a2.782 2.782 0 01-2.167-.8 3.053 3.053 0 01-.713-2.109V21.3h2.56v4q0 1.207 1.09 1.207a1.784 1.784 0 00.9-.233 1.81 1.81 0 00.669-.684V21.3h2.56v6.98h-2.47v-.756a2.911 2.911 0 01-1.091.727 3.679 3.679 0 01-1.338.249zm6.211-7.2h2.37v.756a3.015 3.015 0 011-.713 3.176 3.176 0 012.458-.029 1.844 1.844 0 01.77.7 3.077 3.077 0 011.062-.684 3.414 3.414 0 011.265-.247 2.4 2.4 0 011.964.712 3.082 3.082 0 01.582 2.021v4.465h-2.44v-4.1a1.314 1.314 0 00-.218-.844.9.9 0 00-.727-.262 1.343 1.343 0 00-1.061.465q.015.247.015.756v3.985h-2.444v-4.2a1.232 1.232 0 00-.189-.771.82.82 0 00-.669-.233 1.531 1.531 0 00-1.279.829v4.377h-2.459z" fill="#a8a8a8"></path>
    <path d="M22.275 22.035l-.2.042 6.165 6.165V45h-5.274l-6.207-6.207h5.276V22.034h-5.276v-5.275h5.276V0l6.207 6.207v10.552h-6.207v5.276zm16.523 0l6.2 6.206v-5.276l-6.2-6.206zm12.334 11.014h3.766a3.72 3.72 0 012.487.756 2.758 2.758 0 01.9 2.24 2.755 2.755 0 01-.887 2.24 3.794 3.794 0 01-2.5.742h-2.632v4.188h-1.134zm3.679 5.017a2.956 2.956 0 001.716-.436 1.825 1.825 0 00.625-1.585 1.8 1.8 0 00-.625-1.585 2.883 2.883 0 00-1.716-.451h-2.545v4.057zm4.927-5.599h1.12v10.747h-1.12zm5.975 10.965a2.912 2.912 0 01-2.153-.756 2.762 2.762 0 01-.741-2.021v-4.422h1.119v4.479q0 1.832 1.905 1.832a2.715 2.715 0 001.4-.349 3.218 3.218 0 001.09-1.105v-4.857h1.12v6.981h-1.094v-1.047a3.114 3.114 0 01-2.646 1.265zm8.199 0a5.872 5.872 0 01-1.469-.2 3.859 3.859 0 01-1.222-.48V41.8a5.432 5.432 0 002.662.742 2.534 2.534 0 001.294-.247.858.858 0 00.407-.771.956.956 0 00-.175-.611 1.4 1.4 0 00-.582-.407 10.368 10.368 0 00-1.265-.407 8.117 8.117 0 01-1.353-.48 2.021 2.021 0 01-.757-.654 1.774 1.774 0 01-.261-1 1.613 1.613 0 01.756-1.44 3.64 3.64 0 012.036-.509 5.973 5.973 0 011.28.131 3.59 3.59 0 011.018.335v.945a3.8 3.8 0 00-1.018-.364 5.207 5.207 0 00-1.236-.145 2.65 2.65 0 00-1.28.247.85.85 0 00-.436.8.993.993 0 00.145.582 1.434 1.434 0 00.567.378q.421.16 1.338.407a4.331 4.331 0 011.818.858 1.724 1.724 0 01.524 1.338 1.633 1.633 0 01-.7 1.4 3.506 3.506 0 01-2.091.504z" fill="#c1c1c1"></path>
  </symbol>
  
  <symbol xmlns="http://www.w3.org/2000/svg" viewBox="0 0 126.201 45" id="logo-part-3">
    <g fill="#a8a8a8">
      <path d="M10.762 18.989q-.055 1.285-.055 3.254t.055 3.281a12.8 12.8 0 00.219 2.051 2.149 2.149 0 00.52 1.066 1.391 1.391 0 00.93.3 1.285 1.285 0 00.9-.3 1.885 1.885 0 00.52-1.066 10.666 10.666 0 00.246-2.051q.055-1.313.055-3.281t-.055-3.254a10.8 10.8 0 00-.246-2.078 1.885 1.885 0 00-.52-1.066 1.285 1.285 0 00-.9-.3 1.39 1.39 0 00-.93.3 2.148 2.148 0 00-.52 1.066 12.95 12.95 0 00-.219 2.078z"></path>
      <path d="M11.73.188C5.136.341-.105 6.258.001 13.428l.13 8.81-.13 8.81c-.106 7.17 5.135 13.086 11.729 13.24l8.1.189 8.1-.189c6.594-.153 11.835-6.069 11.729-13.24l-.13-8.81.13-8.81C39.765 6.258 34.524.342 27.93.188L19.834 0zm8.38 33.268l-3.059 2.884-2.789-3.271q-.328.06-.656.089a3.553 3.553 0 01-.684.059h-.492a8.451 8.451 0 01-3.282-.565 4.644 4.644 0 01-2.16-1.873 9.626 9.626 0 01-1.178-3.418 31.158 31.158 0 01-.355-5.084 30.6 30.6 0 01.355-5.056A9.353 9.353 0 016.988 13.8a4.776 4.776 0 012.16-1.933 7.739 7.739 0 013.282-.624 7.738 7.738 0 013.282.624 4.777 4.777 0 012.16 1.933 9.353 9.353 0 011.176 3.419 30.6 30.6 0 01.355 5.055 29.585 29.585 0 01-.383 5.174 9.3 9.3 0 01-1.258 3.452zM28.746 19.3v-1.187a6.226 6.226 0 00-.328-2.468 1.11 1.11 0 00-1.067-.654 1.319 1.319 0 00-.93.327 2.416 2.416 0 00-.52 1.16 15.276 15.276 0 00-.219 2.26q-.055 1.4-.055 3.538t.055 3.568a15.1 15.1 0 00.219 2.23 2.417 2.417 0 00.52 1.16 1.319 1.319 0 00.93.327 1.2 1.2 0 00.766-.238 1.754 1.754 0 00.465-.862 7.755 7.755 0 00.219-1.576q.082-1.011.082-2.527h4.927v1.576a10.352 10.352 0 01-.547 3.657 5.867 5.867 0 01-1.453 2.259 4.622 4.622 0 01-2.078 1.07 9.454 9.454 0 01-2.379.3 9.252 9.252 0 01-3.5-.565 4.337 4.337 0 01-2.133-1.873 9.666 9.666 0 01-1.066-3.419 40.35 40.35 0 01-.274-5.084 34.18 34.18 0 01.328-5.144 9.353 9.353 0 011.176-3.419 4.644 4.644 0 012.16-1.873 8.154 8.154 0 013.309-.595 7.973 7.973 0 012.926.476 4.711 4.711 0 011.942 1.368A5.059 5.059 0 0133.31 15.2a9.881 9.881 0 01.355 2.765V19.3zm34.819-3.436l4.458 4.627 4.458-4.627h7.746l-8.337 7.932 8.337 7.932h-7.746l-4.458-4.64-4.458 4.64H55.81l8.337-7.931-8.337-7.933zm-.43 7.931l-9.068-8.626h9.794l4.162 4.319 4.162-4.319h9.444v-.011h16.006a6.691 6.691 0 016.708 6.7 6.467 6.467 0 01-1.073 3.622 6.657 6.657 0 01-2.037 2.008l3.413 4.382v-2.842c0-2.227 1.664-3.646 3.578-4.588a31.559 31.559 0 016.4-2.025l.023-.006a31.264 31.264 0 003.077-.853 3.192 3.192 0 00.78-.383l.046-.037a1.018 1.018 0 00-.311-.17 6.374 6.374 0 00-2.186-.284 9.322 9.322 0 00-2.773.337 1.53 1.53 0 00-.634.367.567.567 0 00-.145.425l.017.712h-7.63v-.695a7.117 7.117 0 01.84-3.6 5.627 5.627 0 012.383-2.213c1.962-1.009 4.665-1.259 7.679-1.259a17.1 17.1 0 017.462 1.273 5.4 5.4 0 012.177 1.887 5.165 5.165 0 01.766 2.834 4.612 4.612 0 01-2.682 4.1 19.246 19.246 0 01-4.738 1.628h7.16v5.92H105.06l.009.012h-8.364l-2.995-3.871h-4.5v3.871h-7.256l.013.012h-9.783l-4.161-4.329-4.161 4.329h-9.794zm18.494 8.3V15.491l-8.73 8.3zm12.427-4.256l2.992 3.871h6.6l-3.465-4.449a6.147 6.147 0 00.623-.333 5.953 5.953 0 001.884-1.838 5.771 5.771 0 00.958-3.246 5.994 5.994 0 00-6.007-6H82.325v15.871h6.2v-3.871zm21.078-.673a2.772 2.772 0 011.132-.695 18.027 18.027 0 012.3-.662c3.051-.744 6.942-1.759 6.942-5.063 0-3.871-3.6-5.3-9.709-5.3-5.749 0-9.826.937-10.18 5.678q-.025.335-.026.7h6.217v-.077c.034-1.41 1.98-1.741 4.245-1.764 2.211 0 3.228.5 3.228 1.168 0 .83-1.962 1.313-4.426 1.919l-.067.017c-4.092.968-9.449 2.313-9.449 5.937v2.679h19.9v-4.532zm3.461-5.985a.032.032 0 01-.006-.015.03.03 0 01.006.02zm-21.853.663a.656.656 0 00-.664-.662h-6.86v1.313h6.86a.657.657 0 00.664-.65zm.7 0a1.351 1.351 0 00-1.36-1.357h-7.561v2.7h7.557a1.351 1.351 0 001.36-1.345z" fill-rule="evenodd"></path>
      <path d="M56.381 44.813h2.968V40.75l2.973 4.064h1.488l2.973-4.064v4.064h2.968v-7.618h-3.71l-2.973 3.809-2.968-3.809h-3.719zM76 37.009c-2.866.006-5.21.833-5.2 3.718v.555c-.011 2.879 2.334 3.712 5.2 3.718s5.2-.839 5.194-3.718v-.555c0-2.879-2.328-3.718-5.194-3.718zm2.226 4.086c.017 1.247-1.016 1.476-2.226 1.491-1.217-.017-2.248-.244-2.231-1.491v-.187c-.017-1.241 1.014-1.468 2.231-1.485 1.212.017 2.243.244 2.226 1.485zm11.284-.079a1.248 1.248 0 01-1.206 1.394h-3.253v-2.788h3.251a1.245 1.245 0 011.208 1.394zm-7.425-3.809v7.617h6.774a3.813 3.813 0 000-7.617zm18.66 3.894c.017 1.253-1.013 1.468-2.226 1.485-1.217-.017-2.242-.232-2.231-1.485v-3.905H93.32v4.092c-.011 2.879 2.345 3.707 5.2 3.712s5.211-.833 5.2-3.712v-4.092h-2.974zm4.31-3.905v7.617h8.91v-2.414h-5.942v-5.2zm9.923 7.629h8.91v-1.954h-5.942v-.975h5.942v-1.764h-5.942v-.975h5.942v-1.95h-8.91zM58.09 4.606V3h4.4a.726.726 0 01.55.238.759.759 0 01.234.568.782.782 0 01-.234.568.745.745 0 01-.55.231zm-3.6-4.36v9.421h3.6v-2.3h5.3a3.523 3.523 0 003.492-3.561A3.523 3.523 0 0063.39.245zM74.049 0c-3.478.007-6.323 1.03-6.31 4.6v.687c-.014 3.561 2.832 4.592 6.31 4.6s6.317-1.037 6.3-4.6V4.6c.003-3.563-2.822-4.6-6.3-4.6zm2.7 5.054c.021 1.542-1.23 1.823-2.7 1.844-1.478-.021-2.729-.3-2.708-1.844v-.231c-.021-1.535 1.23-1.816 2.708-1.837 1.471.021 2.722.3 2.7 1.837zm17.645 1.157L92.256.245h-4.055l-2.144 5.966L83.919.245h-4.055l4.055 9.421h4.282l2.028-4.711 2.027 4.711h4.282l4.056-9.421h-4.056zm6.475 3.456h10.811V7.248h-7.21V6.043h7.21v-2.18h-7.21V2.657h7.21V.245h-10.811zM113.598.238V9.66h3.6v-2.3h3.217l1.739 2.3h3.835l-2.014-2.643A3.545 3.545 0 00125.99 3.8a3.523 3.523 0 00-3.491-3.561zm7.993 2.755a.8.8 0 01.791.806.782.782 0 01-.234.568.749.749 0 01-.557.231h-4.392V2.993z"></path>
    </g>
  </symbol>

  <symbol xmlns="http://www.w3.org/2000/svg" viewBox="0 0 94.61 45" id="logo-part-5">
    <path d="M0 27.017h2.833v13.89H0zm4.476 9.131a5.043 5.043 0 115.039 5.033 4.986 4.986 0 01-5.043-5.033zm7.233 0A2.191 2.191 0 109.515 38.4a2.134 2.134 0 002.191-2.247z" fill="#282828"></path>
    <path d="M25.95 31.389v9.046c0 3.2-2.5 4.552-5.033 4.552a4.863 4.863 0 01-4.5-2.3l2.436-1.407a2.172 2.172 0 002.125 1.2 1.889 1.889 0 002.191-2.04v-.878a3.362 3.362 0 01-2.776 1.237 4.835 4.835 0 110-9.67 3.39 3.39 0 012.776 1.237v-.944zm-2.786 4.57a2.3 2.3 0 10-2.3 2.21 2.153 2.153 0 002.3-2.21zm4.419.189a5.043 5.043 0 115.043 5.033 4.986 4.986 0 01-5.043-5.033zm7.233 0a2.191 2.191 0 10-2.19 2.252 2.134 2.134 0 002.172-2.247zm4.165-7.309a1.728 1.728 0 11.506 1.212 1.719 1.719 0 01-.506-1.212zm.293 2.55h2.833v9.519h-2.833zm15.184 4.759a4.778 4.778 0 01-4.543 5.033 3.617 3.617 0 01-2.833-1.161v4.722H44.25V31.389h2.833v.9a3.617 3.617 0 012.832-1.165 4.778 4.778 0 014.542 5.024zm-2.833 0a2.266 2.266 0 10-2.323 2.323 2.172 2.172 0 002.3-2.323zm11.653 1.907c0 2.191-1.889 3.126-3.966 3.126a4.174 4.174 0 01-4.089-2.266l2.474-1.407a1.567 1.567 0 001.618 1.123c.689 0 1.029-.217 1.029-.595 0-1.048-4.722-.491-4.722-3.777 0-2.077 1.756-3.126 3.777-3.126a4.184 4.184 0 013.721 2.04l-2.483 1.3a1.407 1.407 0 00-1.284-.84c-.491 0-.793.189-.793.538.034 1.089 4.718.362 4.718 3.884zm10.425-6.666v9.519H70.87v-.888a3.258 3.258 0 01-2.72 1.161c-1.889 0-3.56-1.369-3.56-3.947v-5.845h2.833v5.43a1.568 1.568 0 001.709 1.728c1.039 0 1.766-.6 1.766-1.955v-5.2zm16.374 3.682v5.836h-2.833v-5.59c0-.944-.463-1.568-1.369-1.568s-1.492.671-1.492 1.794v5.364H81.55v-5.59c0-.944-.453-1.568-1.369-1.568s-1.482.671-1.482 1.794v5.364h-2.833v-9.518h2.833v.878a2.927 2.927 0 012.55-1.143 2.833 2.833 0 012.493 1.256 3.135 3.135 0 012.757-1.256c2.152 0 3.578 1.568 3.578 3.947zm2.418-3.739a2.115 2.115 0 10-2.115-2.115 2.115 2.115 0 002.115 2.115z" fill="#282828"></path>
    <path d="M32.059 19.812a9.906 9.906 0 10-9.906-9.906 9.906 9.906 0 009.906 9.906z" fill="#c1c1c1"></path>
    <path d="M54.203 19.812a9.906 9.906 0 10-9.906-9.906 9.906 9.906 0 009.906 9.906z" fill="#f4f4f4"></path>
    <path d="M19.821 0H.015v19.8h19.8z" fill="#a8a8a8"></path>
  </symbol>


 <symbol xmlns="http://www.w3.org/2000/svg" viewBox="0 0 4.178 6.941" id="down">
    <path d="M.353.354L3.47 3.471.353 6.588" fill="rgba(0,0,0,0)"  stroke-miterlimit="10"></path>
  </symbol>


<symbol xmlns="http://www.w3.org/2000/svg" viewBox="0 0 20 19" id="insta">
    <g transform="translate(-1 -1)" fill="none"  stroke-linecap="round" stroke-linejoin="round" stroke-width="2">
      <rect width="18" height="17" rx="5" transform="translate(2 2)"></rect>
      <path d="M15.166 10.034a4 4 0 11-3.37-3.37 4 4 0 013.37 3.37zm1.051-4.136h0"></path>
    </g>
  </symbol>

 <symbol xmlns="http://www.w3.org/2000/svg" viewBox="0 0 20 19" id="facebook">
    <path d="M8.453 9.491l.468-3.052H5.989V4.456a1.527 1.527 0 011.72-1.649h1.332V.2A16.33 16.33 0 006.675 0C4.26 0 2.682 1.462 2.682 4.109v2.326H0v3.052h2.683v7.384a10.583 10.583 0 003.3 0v-7.38z" ></path>
  </symbol>



 <symbol xmlns="http://www.w3.org/2000/svg" viewBox="0 0 74.275 74.257" id="house-popup">
      <path d="M-.001 69.615a3.95 3.95 0 012.144-2.68 18.606 18.606 0 012.8-.631V3.984a3.722 3.722 0 012.97-3.91 4.393 4.393 0 01.935-.072q17.041-.005 34.082 0a3.706 3.706 0 013.9 3.921q.009 12.726 0 25.452v.937h19.471a2.76 2.76 0 013.016 3.014v33.122c.472.026.9.034 1.321.076a3.874 3.874 0 01.94 7.558 3.78 3.78 0 00-.367.179H3.045a4.6 4.6 0 01-3.046-3.046zm7.126-3.171h25.46v-.823c0-.822-.017-1.645.019-2.465a1.039 1.039 0 011.04-1.077 1.091 1.091 0 011.139 1.07c.033.384.01.773.011 1.16v2.118h32.342v-32.75c0-1.1-.095-1.2-1.194-1.2H35.985c-1.165 0-1.2.032-1.2 1.166v23.858a3.169 3.169 0 01-.095.927.98.98 0 01-1.114.724.993.993 0 01-.961-.918 5.717 5.717 0 01-.034-.8V33.431c0-2.083 1.053-3.128 3.111-3.129h8.935V4.311c0-1.669-.482-2.146-2.162-2.146H9.401c-1.831 0-2.275.44-2.275 2.254v61.059zm30 2.274H4.568c-.29 0-.581-.01-.869.014a1.549 1.549 0 00-1.376 1.019c-.513 1.234.4 2.322 1.967 2.322h65.692a3.245 3.245 0 001-.141 1.647 1.647 0 00-.427-3.2c-.289-.023-.58-.013-.87-.013z"></path>
      <path d="M25.875 33.795c.725 0 1.45-.007 2.174 0a2.158 2.158 0 012.236 2.17q.049 2.209 0 4.421a2.177 2.177 0 01-2.223 2.2q-2.173.06-4.348 0a2.2 2.2 0 01-2.236-2.336c-.01-1.4-.014-2.8 0-4.2a2.168 2.168 0 012.293-2.255c.703-.005 1.404 0 2.104 0zm2.147 6.536v-4.3h-4.29v4.3zm-2.137-11.332c-.725 0-1.45.01-2.175 0a2.165 2.165 0 01-2.227-2.181q-.036-2.21 0-4.422a2.165 2.165 0 012.149-2.195q2.245-.07 4.493 0a2.178 2.178 0 012.164 2.262q.032 2.138 0 4.276a2.193 2.193 0 01-2.3 2.261c-.703.006-1.403-.001-2.104-.001zm-2.155-6.54v4.313h4.307v-4.313zm-4.566 2.115c0 .773.024 1.546-.005 2.318a2.108 2.108 0 01-2.137 2.1q-2.245.033-4.491 0a2.077 2.077 0 01-2.114-2.045 74.613 74.613 0 01-.006-4.635 2.1 2.1 0 012.138-2.114c1.5-.044 3-.047 4.491 0a2.129 2.129 0 012.125 2.2c.02.724 0 1.449 0 2.173zm-6.506-2.126v4.321h4.279v-4.32zm24.327 6.55c-.749 0-1.5.015-2.246 0a2.087 2.087 0 01-2.128-2.031 71.032 71.032 0 010-4.707 2.106 2.106 0 012.188-2.062q2.172-.051 4.346 0a2.15 2.15 0 012.214 2.266q.031 2.137 0 4.274a2.141 2.141 0 01-2.272 2.264c-.702.003-1.402-.003-2.102-.004zm2.151-6.526h-4.3v4.31h4.3zM14.788 33.795h2.1a2.123 2.123 0 012.277 2.252q.03 2.136 0 4.273a2.146 2.146 0 01-2.209 2.27q-2.171.059-4.346 0a2.154 2.154 0 01-2.212-2.274q-.041-2.136 0-4.273a2.13 2.13 0 012.288-2.247c.701-.005 1.402-.001 2.102-.001zm2.153 2.218h-4.3v4.309h4.3zm8.976-29.371c.724 0 1.449-.016 2.173 0a2.121 2.121 0 012.193 2.13q.057 2.245 0 4.492a2.106 2.106 0 01-2.118 2.131q-2.281.057-4.564 0a2.119 2.119 0 01-2.12-2.2q-.028-2.173 0-4.347a2.137 2.137 0 012.189-2.206c.749-.017 1.498 0 2.247 0zm2.115 6.543v-4.3h-4.309v4.3zm-2.171 42.956c-.749 0-1.5.016-2.246 0a2.12 2.12 0 01-2.129-2.115c-.03-1.5-.026-2.995 0-4.492a2.086 2.086 0 012.029-2.136 63.17 63.17 0 014.708 0 2.1 2.1 0 012.066 2.182q.041 2.173 0 4.347a2.147 2.147 0 01-2.254 2.219c-.725.006-1.45-.004-2.174-.005zm2.176-6.518h-4.32v4.295h4.32zM14.739 56.14c-.724 0-1.448.014-2.172 0a2.057 2.057 0 01-2.147-2 71.08 71.08 0 010-4.776 1.988 1.988 0 011.95-1.962 65.282 65.282 0 014.847 0 2 2 0 011.935 2.051c.032 1.544.035 3.089 0 4.632a2.056 2.056 0 01-2.1 2.047c-.768.024-1.541.007-2.313.008zm2.192-2.207v-4.3H12.65v4.3zM14.799 6.644c.748 0 1.5-.021 2.244 0a2.068 2.068 0 012.115 2.108q.046 2.279 0 4.56a2.044 2.044 0 01-2.068 2.079q-2.315.06-4.632 0a2.035 2.035 0 01-2.042-2.032 75.154 75.154 0 010-4.7 2.046 2.046 0 012.065-2.007c.774-.03 1.546-.007 2.318-.008zm-2.17 6.52h4.3V8.878h-4.3zm24.344-6.521c.748 0 1.5-.019 2.244 0a2.068 2.068 0 012.133 2.09q.051 2.279 0 4.56a2.044 2.044 0 01-2.05 2.1q-2.314.065-4.632 0a2.032 2.032 0 01-2.059-2.013 71.508 71.508 0 010-4.7 2.058 2.058 0 012.12-2.03c.747-.026 1.496-.007 2.244-.007zm2.138 6.531v-4.28h-4.252v4.28zm25.448 44.637c0 .7.024 1.4-.006 2.1a1.654 1.654 0 01-1.518 1.741 42.6 42.6 0 01-4.843.006 1.7 1.7 0 01-1.577-1.785 60.532 60.532 0 010-4.131 1.83 1.83 0 011.83-1.876 52.09 52.09 0 014.275 0 1.814 1.814 0 011.844 1.919c.023.676 0 1.353 0 2.03zm-2.22-1.689h-3.456v3.348h3.456zm-15.357 1.633c0-.652-.011-1.3 0-1.957a1.813 1.813 0 011.827-1.933 53.459 53.459 0 014.275 0 1.856 1.856 0 011.852 1.934q.045 1.992 0 3.987a1.872 1.872 0 01-1.924 1.942 53.157 53.157 0 01-4.13 0 1.846 1.846 0 01-1.9-2.016c-.009-.652 0-1.305 0-1.957zm2.221-1.636v3.338h3.464v-3.338zm-3.943 1.696c0 .677.015 1.354 0 2.03a1.677 1.677 0 01-1.528 1.809 41.256 41.256 0 01-4.843 0 1.739 1.739 0 01-1.58-1.86q-.044-1.992 0-3.987a1.878 1.878 0 011.913-1.953q2.064-.07 4.131 0a1.848 1.848 0 011.913 2c.012.652 0 1.3 0 1.957zm-2.207-1.7h-3.491v3.339h3.491zm17.564-20.016c.7 0 1.4-.016 2.1 0a1.767 1.767 0 011.837 1.824q.049 2.1 0 4.2a1.781 1.781 0 01-1.8 1.8c-1.424.029-2.85.025-4.275 0a1.777 1.777 0 01-1.837-1.695 43.827 43.827 0 01-.007-4.416 1.77 1.77 0 011.882-1.715c.699-.013 1.4.002 2.1.002zm1.726 2.219h-3.452v3.395h3.452zm2.216 10.629c0 .7.028 1.4-.007 2.1a1.739 1.739 0 01-1.757 1.748c-1.424.038-2.85.037-4.275.009a1.813 1.813 0 01-1.906-1.856 59.652 59.652 0 010-4.057 1.877 1.877 0 012.009-1.922q1.993-.021 3.985 0a1.843 1.843 0 011.96 1.948c.021.676 0 1.352 0 2.029zm-2.215-1.753H58.89v3.393h3.454zm-11.367-2.227c.677 0 1.353-.015 2.029 0a1.861 1.861 0 011.927 1.852 63.9 63.9 0 010 4.13 1.814 1.814 0 01-1.908 1.852q-2.064.044-4.13 0a1.8 1.8 0 01-1.908-1.909 137.236 137.236 0 010-4.058 1.821 1.821 0 011.885-1.87c.703-.013 1.404.003 2.105.003zm1.711 5.622V47.2h-3.489v3.389zm-1.744-14.492c.677 0 1.353-.012 2.029 0a1.84 1.84 0 011.965 1.873q.058 2.028 0 4.058a1.865 1.865 0 01-1.95 1.9q-2.029.025-4.058 0a1.818 1.818 0 01-1.939-1.886q-.034-2.028 0-4.058a1.8 1.8 0 011.925-1.888c.675-.011 1.351.001 2.028.001zm1.749 2.224h-3.47v3.386h3.47zM41.264 52.809c-.7 0-1.4.024-2.1-.005a1.813 1.813 0 01-1.851-1.836q-.064-2.063 0-4.13a1.868 1.868 0 011.986-1.867q1.993-.023 3.986 0A1.836 1.836 0 0145.26 46.9q.029 1.992 0 3.986a1.8 1.8 0 01-1.893 1.924c-.7.024-1.4 0-2.1 0zm-1.692-5.62v3.4h3.459v-3.4zm1.724-11.087c.725 0 1.45-.021 2.174.005a1.76 1.76 0 011.782 1.8q.04 2.1 0 4.2a1.8 1.8 0 01-1.856 1.818c-1.377.022-2.754.018-4.131 0a1.864 1.864 0 01-1.956-1.9q-.057-2.027 0-4.058a1.84 1.84 0 011.959-1.879c.676-.014 1.353 0 2.029 0zm-1.73 5.591h3.473v-3.387h-3.475z"></path>
  </symbol>


  <symbol xmlns="http://www.w3.org/2000/svg" width="41" height="14" viewBox="0 0 41.065 14.532" id="dotts">
    <path d="M7.756 10.665a.822.822 0 01-.589-.248L4.652 7.841A.823.823 0 115.83 6.69l1.926 1.973 4.442-4.548a.823.823 0 111.178 1.151l-5.031 5.151a.823.823 0 01-.589.248zm11.406 0a.823.823 0 01-.589-.248l-2.515-2.576a.823.823 0 011.178-1.151l1.926 1.973 4.442-4.548a.823.823 0 111.178 1.151l-5.031 5.151a.823.823 0 01-.589.248zm11.403 0a.823.823 0 01-.589-.248l-2.515-2.576a.823.823 0 011.178-1.151l1.926 1.973 4.442-4.548a.823.823 0 111.178 1.151l-5.031 5.151a.823.823 0 01-.589.248z" ></path>
    <path d="M38.651 14.532H2.413A2.416 2.416 0 010 12.118v-9.7A2.416 2.416 0 012.413.004h36.238a2.416 2.416 0 012.414 2.414v9.7a2.416 2.416 0 01-2.414 2.414zM2.413 1.647a.768.768 0 00-.767.767v9.7a.768.768 0 00.767.767h36.238a.768.768 0 00.767-.767v-9.7a.768.768 0 00-.767-.767z"   ></path>
  </symbol>

  <symbol xmlns="http://www.w3.org/2000/svg" viewBox="0 0 74.357 64.922" id="i-popup-3">
    <g >
      <path d="M52.828 35.355h-10.1a5.019 5.019 0 00-5.014 5.014v7.749a5.019 5.019 0 005.014 5.014h10.1a5.019 5.019 0 005.014-5.014v-7.749a5.019 5.019 0 00-5.014-5.014zm1.367 12.763a1.371 1.371 0 01-1.367 1.367h-10.1a1.371 1.371 0 01-1.367-1.367v-7.749a1.371 1.371 0 011.367-1.367h10.1a1.371 1.371 0 011.367 1.367z"></path>
      <path d="M74.357 21.271a1.692 1.692 0 00-.243-.9L63.053.927A1.833 1.833 0 0061.473 0h-48.6a1.8 1.8 0 00-1.58.927L.243 20.375a1.843 1.843 0 00-.243.9 10.666 10.666 0 006.381 9.754v32.07A1.829 1.829 0 008.2 64.922h57.938a1.829 1.829 0 001.823-1.823V31.25a.8.8 0 00-.015-.2 10.7 10.7 0 006.411-9.779zM13.933 3.662H60.41l8.645 15.208H5.3zm38.987 18.84a7.007 7.007 0 01-13.8 0zm-17.67 0a7.016 7.016 0 01-13.811 0zm-31.481 0h13.81a7.016 7.016 0 01-13.811 0zM30.63 61.276H20.147V41.6a2.6 2.6 0 012.6-2.6h5.3a2.6 2.6 0 012.6 2.6v19.676zm33.684 0H34.277V41.6a6.254 6.254 0 00-6.245-6.245h-5.3a6.254 6.254 0 00-6.245 6.245v19.691h-6.459V31.922c.213.015.425.015.638.015a10.652 10.652 0 008.843-4.71 10.656 10.656 0 0017.685 0 10.627 10.627 0 0017.655 0 10.652 10.652 0 008.843 4.71c.213 0 .41-.015.623-.015v29.354zm-.622-32.986a7 7 0 01-6.9-5.774H70.6a7.046 7.046 0 01-6.908 5.774z"></path>
    </g>
  </symbol>


  <symbol xmlns="http://www.w3.org/2000/svg" viewBox="0 0 65.582 65.442" id="i-popup-2">
    <g   stroke-width=".5">
      <path d="M5.955 21.891l1.543 1.551-3.585 3.578c-2.019 2.021-2.008 4.345.029 6.381l20.507 20.5c1.2 1.2 1.965 1.16 3.167-.252l-1.473-1.185 1.756-1.556 1 1.269 2.327-2.319c-.092-.1-.267-.29-.452-.474L13.53 32.138a4.093 4.093 0 011.267-6.817 12.327 12.327 0 011.612-.4c.386-2.93 1.95-3.973 4.275-4.254.37-2.824 1.815-3.971 4.29-4.28.076-.407.119-.828.234-1.229a4.088 4.088 0 016.85-1.745c3.029 2.986 6.023 6.009 9.03 9.018.705.706 1.4 1.419 2.229 2.257.168-1.588.338-3.008.448-4.433.015-.2-.24-.45-.421-.624q-6.542-6.258-13.1-12.5c-.24-.229-.461-.478-.752-.78l1.452-1.536 13.613 12.986 1.505-1.209c-.125-.131-.272-.292-.426-.446L33.399 3.909c-2.021-2.02-4.359-2.016-6.386.01q-8.719 8.715-17.434 17.434a7.138 7.138 0 00-.481.6l-1.532-1.606c.081-.092.186-.225.3-.344L25.631 2.238a6.293 6.293 0 019.169.02q6.656 6.668 13.332 13.315c.479.476 1.1.8 1.609 1.256a18.044 18.044 0 011.521 1.554c.361.41.614.919.991 1.311 1.127 1.172 2.295 2.3 3.44 3.458a3.675 3.675 0 01-.014 5.553c-.925.933-1.858 1.859-2.787 2.788a2.069 2.069 0 00.024 2.777q1.534 1.537 3.07 3.072c.138.139.267.286.4.427l-1.5 1.5c-1.429-1.422-2.877-2.832-4.278-4.287a1.656 1.656 0 01-.3-.991c-.207-3.69-.391-7.38-.581-11.071-.047-.911-.079-1.824-.143-2.734a1.809 1.809 0 00-3.612-.051q-.352 3.318-.687 6.637c-.054.53-.171 1.037-.732 1.247a1.269 1.269 0 01-1.421-.463q-6.178-6.2-12.387-12.37a3.054 3.054 0 00-1.348-.77 1.683 1.683 0 00-1.923.881 1.86 1.86 0 00.094 2.134 4.465 4.465 0 00.541.589q4.463 4.466 8.928 8.931a3.02 3.02 0 01.483.549A1.066 1.066 0 0136 28.933a3.235 3.235 0 01-.488-.453q-4.513-4.511-9.034-9.014a3.051 3.051 0 00-1.151-.746 1.829 1.829 0 00-2.131.844 1.936 1.936 0 00.214 2.294c.307.352.651.671.982 1l8.362 8.363a3.157 3.157 0 01.452.489 1.023 1.023 0 01-.133 1.4 1.007 1.007 0 01-1.4.066 4.187 4.187 0 01-.484-.459q-4.49-4.487-8.986-8.967a3.079 3.079 0 00-1.149-.751 1.829 1.829 0 00-2.134.836 1.951 1.951 0 00.2 2.3c.158.187.338.355.511.528l8.835 8.835a3.188 3.188 0 01.49.543 1.067 1.067 0 01-1.494 1.461 3.456 3.456 0 01-.539-.5c-3.009-3.007-6.006-6.026-9.04-9.008a3.053 3.053 0 00-1.421-.76 1.652 1.652 0 00-1.807.864 1.852 1.852 0 00.025 2.078 3.665 3.665 0 00.523.6q15.284 15.285 30.571 30.566c.139.139.287.27.378.355l15.5-15.489-1.578-1.477-12.977 12.985-1.527-1.574 13.051-13.039-2.315-2.171 1.667-1.581c.105.1.284.254.452.421q2.742 2.738 5.481 5.481c.723.726.732 1.227.016 1.937-.377.374-.788.713-1.265 1.14l2.565 2.4-1.561 1.588-2.273-2.338-11.36 11.358 2.427 2.193-1.637 1.561-2.346-2.416-1.254 1.223c-.725.708-1.219.712-1.939-.007q-5.909-5.9-11.811-11.812a7.449 7.449 0 01-.494-.617c-.246.225-.41.364-.561.515-1.262 1.258-2.515 2.525-3.782 3.777a3.641 3.641 0 01-5.377.008Q12.707 45.238 2.181 34.692a6.2 6.2 0 01-.024-8.971c1.246-1.275 2.509-2.531 3.798-3.83zm45.923.64c.034.521.064 1.021.1 1.52.023.3-.055.714.111.894.681.741 1.438 1.412 2.172 2.114.6-.773.719-1.465.21-2.018-.8-.872-1.699-1.654-2.594-2.51zM41.283 6.211l-.76-2.029A63.7 63.7 0 0162.249.253v2.141a62.212 62.212 0 00-20.966 3.817zM4.203 40.503l2.016.754a60.33 60.33 0 00-3.458 14.708l-2.139-.208a60.706 60.706 0 013.581-15.254zm10.496 9.716l2.083.554a50.441 50.441 0 00-1.536 13.59H13.14a48.641 48.641 0 011.559-14.144zm47.533-34.697l-10.447 1.149-.428-1.9a51.765 51.765 0 0110.875-1.247zM2.46 58.04v6.316H.377v-6.433z"></path>
      <path d="M8.417 31.66l-1.322 1.294-2.108-2.115 1.368-1.255zm4.297 4.237l-1.353 1.372-2.1-2.086 1.353-1.409zm2.756 5.546l-2-1.976 1.419-1.388 2.079 2.094zm3.715.868l2.084 2.12-1.442 1.28-2.025-2.023zm2.856 5.68l1.378-1.308 2.073 2.063-1.353 1.38z"></path>
    </g>
  </symbol>



<symbol xmlns="http://www.w3.org/2000/svg" viewBox="0 0 21.92 21.92" id="cross-big">
    <path d="M.354.353l21.213 21.214m0-21.214L.354 21.567" fill="none" ></path>
  </symbol>



 <symbol xmlns="http://www.w3.org/2000/svg" viewBox="0 0 41.065 14.532" id="mark-1">
    <path d="M22.48 10.664a.823.823 0 01-.589-.248L19.376 7.84a.823.823 0 111.178-1.151l1.926 1.973 4.442-4.548A.823.823 0 1128.1 5.265l-5.031 5.151a.823.823 0 01-.589.248zm-9.75.515v-1.084h4.588v1.084zm1.616-.615V4.746l.678.146-2.179 1.314v-1.2l2.065-1.251h.782v6.809z" ></path>
    <path d="M38.651 14.532H2.413A2.416 2.416 0 010 12.118v-9.7A2.416 2.416 0 012.413.004h36.238a2.416 2.416 0 012.414 2.414v9.7a2.416 2.416 0 01-2.414 2.414zM2.413 1.647a.768.768 0 00-.767.767v9.7a.768.768 0 00.767.767h36.238a.768.768 0 00.767-.767v-9.7a.768.768 0 00-.767-.767z" ></path>
  </symbol>



 <symbol xmlns="http://www.w3.org/2000/svg" viewBox="0 0 96.34 95.87" id="result-1">
    <g fill="#00733b">
      <path d="M96.34 76.269H38.134v19.6l-12.042-7.225-12.043 7.225v-19.6H0V0h96.34zm-78.808-13.62c.181.183.373.352.564.522.108.1.208.2.321.291s.257.193.385.292a11.964 11.964 0 005.957 2.4c.036 0 .072.011.11.015a12.062 12.062 0 002.453 0c.036 0 .072-.011.11-.015a11.975 11.975 0 005.958-2.4c.128-.1.261-.189.385-.292s.213-.194.321-.291c.191-.17.382-.339.565-.522a12.039 12.039 0 10-17.129 0zm.532 26.133l8.028-4.818 8.028 4.818V68.1c-.068.04-.144.067-.215.1a16.4 16.4 0 01-1.646.807l-.076.028a15.976 15.976 0 01-12.187 0c-.024-.01-.05-.018-.076-.028a15.962 15.962 0 01-1.646-.807c-.07-.038-.147-.064-.215-.1v20.682zM92.326 4.015H4.014V72.26h10.037v-7.479a16.056 16.056 0 1124.085 0v7.479h54.191z"></path>
      <path d="M58.219 60.212h22.078v4.014H58.219z"></path>
    </g>
    <path d="M52.626 48.317l12.595-6.624 12.6 6.624-2.406-14.023 10.191-9.932-14.088-2.046L65.231 9.55l-6.3 12.766-14.094 2.046 10.2 9.932zm22.686-20.612l-5.043 4.914 1.19 6.944-6.238-3.28-6.235 3.28 1.19-6.944-5.042-4.914 6.976-1.012 3.114-6.313 3.107 6.313z" fill="#00733b"></path>
  </symbol>
  <symbol xmlns="http://www.w3.org/2000/svg" viewBox="0 0 96.644 96.173" id="result-3">
    <g fill="#00733b">
      <path d="M96.644 76.51H38.255v19.662l-12.081-7.248-12.08 7.248V76.51H0V0h96.644zM17.587 62.847c.181.183.375.353.566.523.109.1.21.2.323.292s.257.193.386.292a12 12 0 005.977 2.41c.036 0 .072.012.111.016a12.13 12.13 0 002.459 0c.037 0 .073-.011.11-.016a12.01 12.01 0 005.977-2.41c.128-.1.262-.189.386-.292s.214-.2.322-.292c.192-.171.384-.34.567-.523a12.076 12.076 0 10-17.184 0zm.534 26.215l8.053-4.832 8.053 4.832V68.316c-.068.04-.145.066-.215.1a16.478 16.478 0 01-1.651.809l-.077.029a16.02 16.02 0 01-12.225 0l-.076-.029a15.732 15.732 0 01-1.651-.809c-.071-.038-.147-.064-.215-.1V89.06zm74.5-85.034H4.03v68.456h10.067v-7.5a16.108 16.108 0 1124.161 0v7.5h54.357z"></path>
      <path d="M58.416 60.402h22.148v4.027H58.416zm-12.937-21.32c.01-.023.021-.045.033-.068a.318.318 0 00.022-.044 3.672 3.672 0 012.191-2.665l.02-.009V35.16c0-.931-.01-1.894.015-2.843a16.759 16.759 0 012.073-7.7 17.6 17.6 0 019.287-8.124.313.313 0 00.248-.3 3.693 3.693 0 013.52-3.135 99.536 99.536 0 014.948 0 3.689 3.689 0 013.516 3.139c.027.168.068.229.287.313a17.462 17.462 0 017.24 5.161 16.86 16.86 0 014.016 9.727c.087 1.177.08 2.375.075 3.532v1.153c0 .2.025.228.175.3a3.738 3.738 0 011.705 5.092 3.746 3.746 0 01-3.536 2.061H49.573c-.142 0-.283 0-.425-.005a3.79 3.79 0 01-2.337-.876 4.086 4.086 0 01-1.35-2.356.324.324 0 01-.009-.077v-.993a.324.324 0 01.027-.147zm30.535-13.147a1.555 1.555 0 01-.445 1.115 1.482 1.482 0 01-2.5-1.108q-.006-2.659 0-5.318c0-.138-.013-.146-.091-.185a70.447 70.447 0 01-1.428-.757l-.121-.065v8.615a1.43 1.43 0 01-.881 1.4 1.412 1.412 0 01-1.6-.264 1.53 1.53 0 01-.478-1.211q.006-4.272 0-8.544v-2.725a.837.837 0 00-.878-.892 237.694 237.694 0 00-4.469 0c-.724.007-.877.545-.877.995v11.14a2.016 2.016 0 01-.045.525 1.483 1.483 0 01-1.645 1.093 1.463 1.463 0 01-1.257-1.474q-.005-2.809 0-5.619v-3.039l-.051.028c-.546.293-1.064.571-1.571.862a.854.854 0 00-.011.124v5.354a1.472 1.472 0 01-2.886.419 1.952 1.952 0 01-.062-.543V22.93a14.5 14.5 0 00-.5.546 14.643 14.643 0 00-3.332 7.23 17.761 17.761 0 00-.173 2.24c-.02.769-.015 1.523-.011 2.323v.688h29.319q0-.422.006-.844a19.661 19.661 0 00-.664-6.508 15.176 15.176 0 00-3.344-5.675v.642c-.004.786-.002 1.575-.005 2.364zM48.526 40.158a.868.868 0 00.626.4 2.288 2.288 0 00.319.012h31.814c.516 0 .843-.182.97-.541a.786.786 0 00-.055-.673.847.847 0 00-.6-.4 1.755 1.755 0 00-.343-.017H49.513c-.757 0-.957.289-1.047.542a.787.787 0 00.059.677z"></path>
    </g>
  </symbol>
  <symbol xmlns="http://www.w3.org/2000/svg" viewBox="0 0 96.644 96.173" id="result-4">
    <g fill="#00733b">
      <path d="M96.644 76.51H38.255v19.662l-12.081-7.248-12.08 7.248V76.51H0V0h96.644zM17.587 62.847c.181.183.375.353.566.523.109.1.21.2.323.292s.257.193.386.292a12 12 0 005.977 2.41c.036 0 .072.012.111.016a12.13 12.13 0 002.459 0c.037 0 .073-.011.11-.016a12.01 12.01 0 005.977-2.41c.128-.1.262-.189.386-.292s.214-.2.322-.292c.192-.171.384-.34.567-.523a12.076 12.076 0 10-17.184 0zm.534 26.215l8.053-4.832 8.053 4.832V68.316c-.068.04-.145.066-.215.1a16.478 16.478 0 01-1.651.809l-.077.029a16.02 16.02 0 01-12.225 0l-.076-.029a15.732 15.732 0 01-1.651-.809c-.071-.038-.147-.064-.215-.1V89.06zm74.5-85.034H4.03v68.456h10.067v-7.5a16.108 16.108 0 1124.161 0v7.5h54.357z"></path>
      <path d="M58.416 60.402h22.148v4.027H58.416z"></path>
    </g>
    <path d="M81.263 25.315h-6.792v-6.792h-12.4v6.792h-6.792v12.4h6.792v6.792h12.4v-6.792h6.792z" fill="none" stroke="#00733b" stroke-miterlimit="10" stroke-width="3"></path>
  </symbol>
  <symbol xmlns="http://www.w3.org/2000/svg" viewBox="0 0 97.925 97.448" id="result-2">
    <g fill="#00733b">
      <path d="M97.925 77.524H38.763v19.924l-12.241-7.344-12.241 7.344V77.524H0V0h97.925zm-80.1-13.844c.184.186.38.357.573.531.111.1.212.2.326.3s.261.2.392.3a12.152 12.152 0 006.055 2.442c.037 0 .073.012.112.016a12.544 12.544 0 002.494 0c.036 0 .073-.012.113-.016a12.164 12.164 0 006.055-2.442c.131-.1.265-.191.391-.3s.217-.2.327-.3c.194-.174.388-.345.573-.531a12.236 12.236 0 10-17.41 0zm.541 26.562l8.161-4.9 8.16 4.9V69.22c-.069.042-.147.068-.218.106a16.443 16.443 0 01-1.673.82c-.025.011-.051.019-.078.029a16.231 16.231 0 01-12.388 0c-.024-.01-.051-.018-.077-.029a15.885 15.885 0 01-1.673-.82c-.071-.039-.149-.065-.219-.106v21.022zM93.85 4.08H4.085v69.364h10.2v-7.6a16.321 16.321 0 1124.482 0v7.6h55.082z"></path>
      <path d="M58.243 61.203h22.441v4.08H58.243zM46.889 16.411l.23-.08a35.894 35.894 0 012.848-.815 38.933 38.933 0 017.415-1.061c5.515-.226 13.253.829 18.8 7.161 4.615 5.269 5.035 12.714 1.066 17.876a34.449 34.449 0 012.768 7.176 2.2 2.2 0 11-4.263 1.066 28.828 28.828 0 00-1.917-5.224 14.079 14.079 0 01-9.664 1.4 12.347 12.347 0 01-9.821-10c-1.232-5.858-3.354-9.267-4.917-11.094a11.7 11.7 0 00-2.049-1.922 5.948 5.948 0 00-.549-.352c-.051-.029-.087-.047-.1-.054a2.2 2.2 0 01.153-4.07zm19.085 15.812a2.2 2.2 0 112.437-3.656 25.045 25.045 0 016.316 6.662 9.9 9.9 0 00-1.851-10.723c-3.532-4.033-8.687-5.944-15.313-5.666a33.426 33.426 0 00-5.208.641c.141.154.281.311.418.473 2.756 3.224 4.733 7.612 5.877 13.043a8.016 8.016 0 006.42 6.608 9.82 9.82 0 006.648-.953 21.9 21.9 0 00-5.744-6.429z"></path>
    </g>
  </symbol>


  <symbol xmlns="http://www.w3.org/2000/svg" aria-hidden="true" viewBox="0 0 24 24" id="menu">
    <path d="M4 6h16v2H4zm0 5h16v2H4zm0 5h16v2H4z" fill="dark"></path>
  </symbol>


<symbol xmlns="http://www.w3.org/2000/svg" aria-hidden="true" viewBox="0 0 36 36" id="close">
    <path fill="white" d="M19.41 18l7.29-7.29a1 1 0 00-1.41-1.41L18 16.59l-7.29-7.3A1 1 0 009.3 10.7l7.29 7.3-7.3 7.29a1 1 0 101.41 1.41l7.3-7.29 7.29 7.29a1 1 0 001.41-1.41z"></path>
  </symbol>



</svg>