<svg xmlns="http://www.w3.org/2000/svg" width="212.159" height="40.003" viewBox="0 0 212.159 40.003">
  <g id="Сгруппировать_38" data-name="Сгруппировать 38" transform="translate(-222.972 -227.691)">
    <rect id="Прямоугольник_66" data-name="Прямоугольник 66" width="84.056" height="40.003" transform="translate(222.972 227.691)" fill="#00733b"/>
    <rect id="Прямоугольник_67" data-name="Прямоугольник 67" width="128.134" height="40.003" transform="translate(306.997 227.691)" fill="#2da34a"/>
    <path id="Контур_742" data-name="Контур 742" d="M528.937,253.46a6.44,6.44,0,0,0-2.867-.555,7.173,7.173,0,0,0-5.421,2.387,8.165,8.165,0,0,0-1.591,2.683,10.221,10.221,0,0,0,0,6.753,8.4,8.4,0,0,0,1.573,2.664,7.113,7.113,0,0,0,2.349,1.758,6.793,6.793,0,0,0,2.905.629,6.506,6.506,0,0,0,3.145-.74,6.259,6.259,0,0,0,2.257-2.072l4.81,3.589A10.015,10.015,0,0,1,531.879,274a13.047,13.047,0,0,1-5.254,1.11,16.15,16.15,0,0,1-5.661-.962,12.95,12.95,0,0,1-4.477-2.757,12.482,12.482,0,0,1-2.942-4.348,15.923,15.923,0,0,1,0-11.4,12.485,12.485,0,0,1,2.942-4.348,12.97,12.97,0,0,1,4.477-2.757,16.144,16.144,0,0,1,5.661-.962,13.9,13.9,0,0,1,2.313.2,12.541,12.541,0,0,1,2.369.648,10.6,10.6,0,0,1,2.239,1.184,8.953,8.953,0,0,1,1.924,1.813s-2.773,3.894-6.531,2.035" transform="translate(-198.599 -13.641)" fill="#fff"/>
    <path id="Контур_743" data-name="Контур 743" d="M666.843,270.514H654.152v-5.328h11.36v-5.329h-11.36v-4.884h12.026v-5.329h-17.8v26.2h13.133a5.336,5.336,0,0,0,5.331-5.328" transform="translate(-291.814 -15.059)" fill="#fff"/>
    <path id="Контур_744" data-name="Контур 744" d="M608.362,270.514H597.669v-20.87H591.9v26.2h11.135a5.336,5.336,0,0,0,5.331-5.328" transform="translate(-253.069 -15.059)" fill="#fff"/>
    <path id="Контур_745" data-name="Контур 745" d="M245.136,249.7v5.106h7.475V275.9h.009a5.775,5.775,0,0,0,5.764-5.762v-15.33h7.474V249.7Z" transform="translate(-15.204 -15.097)" fill="#fff"/>
    <path id="Контур_746" data-name="Контур 746" d="M424.787,253.788a6.456,6.456,0,0,0-2.146-2.442,8.763,8.763,0,0,0-3.164-1.277,19.233,19.233,0,0,0-3.848-.37H405.9v26.2h.013a5.776,5.776,0,0,0,5.759-5.686v-4.527h4.218a17.977,17.977,0,0,0,3.848-.388,8.247,8.247,0,0,0,3.071-1.313,6.316,6.316,0,0,0,2.036-2.479,8.921,8.921,0,0,0,.74-3.848,8.357,8.357,0,0,0-.8-3.866m-5.55,5.4a2.674,2.674,0,0,1-.925.962,3.989,3.989,0,0,1-1.3.5,7.44,7.44,0,0,1-1.5.148H411.67v-6.217h2.96a16.574,16.574,0,0,1,1.7.093,5.069,5.069,0,0,1,1.609.426,3.076,3.076,0,0,1,1.184.944,2.6,2.6,0,0,1,.462,1.609,3.047,3.047,0,0,1-.351,1.536" transform="translate(-125.481 -15.097)" fill="#fff"/>
    <path id="Контур_747" data-name="Контур 747" d="M335.718,255.644a12.5,12.5,0,0,0-2.941-4.348,12.734,12.734,0,0,0-3.521-2.357,4.892,4.892,0,0,0-6.622,3.967h0a8.582,8.582,0,0,1,3.349.629,7.526,7.526,0,0,1,2.572,1.758,7.731,7.731,0,0,1,1.647,2.683,10.238,10.238,0,0,1,0,6.753,7.771,7.771,0,0,1-1.647,2.664,7.513,7.513,0,0,1-2.572,1.758,9.228,9.228,0,0,1-6.7,0,7.505,7.505,0,0,1-2.572-1.758,7.746,7.746,0,0,1-1.647-2.664,10.233,10.233,0,0,1,0-6.753,7.708,7.708,0,0,1,1.647-2.683,7.518,7.518,0,0,1,2.572-1.758,8.572,8.572,0,0,1,3.339-.629v-5.329a16.15,16.15,0,0,0-5.651.962A12.971,12.971,0,0,0,312.5,251.3a12.5,12.5,0,0,0-2.942,4.348,15.919,15.919,0,0,0,0,11.4,12.494,12.494,0,0,0,2.942,4.348,12.951,12.951,0,0,0,4.478,2.757,17.135,17.135,0,0,0,11.323,0,12.961,12.961,0,0,0,4.478-2.757,12.494,12.494,0,0,0,2.941-4.348,15.918,15.918,0,0,0,0-11.4" transform="translate(-58.67 -13.641)" fill="#fff"/>
    <path id="Контур_748" data-name="Контур 748" d="M723.206,252.749h0c-1.152-2.394-3.508-3.13-6.113-3.081h0l-11.323,26.2h6.364l2.183-5.55h10.176l2.257,5.55h6.513Zm-7.076,12.682,3.181-8.14,3.22,8.14Z" transform="translate(-331.182 -15.075)" fill="#fff"/>
    <path id="Контур_749" data-name="Контур 749" d="M816.6,249.694V267.9h-.074l-11.138-18.206h-7.844v26.2h5.773v-18.65h.074l11.434,18.65h1.617a6.039,6.039,0,0,0,5.932-6.128V249.694Z" transform="translate(-394.135 -15.094)" fill="#fff"/>
  </g>
</svg>
