<svg xmlns="http://www.w3.org/2000/svg" width="154.004" height="21.38" viewBox="0 0 154.004 21.38">
  <g id="Сгруппировать_51" data-name="Сгруппировать 51" transform="translate(-245.136 -445.409)">
    <path id="Контур_759" data-name="Контур 759" d="M525.263,449.978a5,5,0,0,0-2.227-.431,5.571,5.571,0,0,0-4.21,1.854,6.342,6.342,0,0,0-1.235,2.083,7.939,7.939,0,0,0,0,5.244,6.518,6.518,0,0,0,1.221,2.069,5.523,5.523,0,0,0,1.824,1.365,5.273,5.273,0,0,0,2.256.489,5.052,5.052,0,0,0,2.443-.575,4.86,4.86,0,0,0,1.753-1.609l3.736,2.788a7.777,7.777,0,0,1-3.276,2.672,10.136,10.136,0,0,1-4.08.862,12.543,12.543,0,0,1-4.4-.747,10.059,10.059,0,0,1-3.477-2.141,9.7,9.7,0,0,1-2.284-3.376,12.366,12.366,0,0,1,0-8.851,9.7,9.7,0,0,1,2.284-3.376,10.069,10.069,0,0,1,3.477-2.141,12.543,12.543,0,0,1,4.4-.747,10.786,10.786,0,0,1,1.8.158,9.721,9.721,0,0,1,1.84.5,8.219,8.219,0,0,1,1.738.919,6.943,6.943,0,0,1,1.494,1.408s-2.153,3.024-5.072,1.58" transform="translate(-202.151)" fill="#fff"/>
    <path id="Контур_760" data-name="Контур 760" d="M662.719,463.683h-9.856v-4.138h8.822v-4.138h-8.822v-3.793H662.2v-4.138H648.379v20.345h10.2a4.144,4.144,0,0,0,4.14-4.138" transform="translate(-304.899 -1.563)" fill="#fff"/>
    <path id="Контур_761" data-name="Контур 761" d="M604.684,463.683h-8.3V447.476H591.9v20.345h8.648a4.144,4.144,0,0,0,4.14-4.138" transform="translate(-262.192 -1.563)" fill="#fff"/>
    <path id="Контур_762" data-name="Контур 762" d="M245.136,447.531V451.5h5.8v16.38h.007a4.485,4.485,0,0,0,4.476-4.474V451.5h5.8v-3.966Z" transform="translate(0 -1.604)" fill="#fff"/>
    <path id="Контур_763" data-name="Контур 763" d="M420.567,450.706a5.014,5.014,0,0,0-1.666-1.9,6.806,6.806,0,0,0-2.457-.991,14.933,14.933,0,0,0-2.988-.288H405.9v20.346h.01a4.486,4.486,0,0,0,4.473-4.416v-3.516h3.276a13.959,13.959,0,0,0,2.989-.3,6.408,6.408,0,0,0,2.385-1.02,4.906,4.906,0,0,0,1.581-1.925,6.929,6.929,0,0,0,.575-2.989,6.491,6.491,0,0,0-.618-3m-4.31,4.2a2.075,2.075,0,0,1-.718.747,3.091,3.091,0,0,1-1.006.388,5.777,5.777,0,0,1-1.164.115h-2.989v-4.828h2.3A12.879,12.879,0,0,1,414,451.4a3.937,3.937,0,0,1,1.25.33,2.39,2.39,0,0,1,.92.733,2.017,2.017,0,0,1,.359,1.25,2.365,2.365,0,0,1-.273,1.193" transform="translate(-121.555 -1.604)" fill="#fff"/>
    <path id="Контур_764" data-name="Контур 764" d="M329.638,451.673a9.707,9.707,0,0,0-2.284-3.376,9.889,9.889,0,0,0-2.734-1.831,3.8,3.8,0,0,0-5.143,3.081h0a6.663,6.663,0,0,1,2.6.488,5.845,5.845,0,0,1,2,1.365,6.006,6.006,0,0,1,1.279,2.083,7.951,7.951,0,0,1,0,5.244,6.035,6.035,0,0,1-1.279,2.069,5.834,5.834,0,0,1-2,1.365,7.163,7.163,0,0,1-5.2,0,5.828,5.828,0,0,1-2-1.365,6.016,6.016,0,0,1-1.279-2.069,7.947,7.947,0,0,1,0-5.244,5.987,5.987,0,0,1,1.279-2.083,5.839,5.839,0,0,1,2-1.365,6.656,6.656,0,0,1,2.593-.488v-4.138a12.537,12.537,0,0,0-4.389.747,10.07,10.07,0,0,0-3.477,2.141,9.707,9.707,0,0,0-2.284,3.376,12.363,12.363,0,0,0,0,8.851,9.706,9.706,0,0,0,2.284,3.377,10.063,10.063,0,0,0,3.477,2.141,13.308,13.308,0,0,0,8.793,0,10.071,10.071,0,0,0,3.478-2.141,9.706,9.706,0,0,0,2.284-3.377,12.363,12.363,0,0,0,0-8.851" transform="translate(-47.912)" fill="#fff"/>
    <path id="Контур_765" data-name="Контур 765" d="M719.311,449.892h0c-.895-1.859-2.724-2.431-4.747-2.393h0l-8.793,20.345h4.943l1.7-4.31h7.9l1.753,4.31h5.058Zm-5.495,9.849,2.471-6.322,2.5,6.322Z" transform="translate(-348.294 -1.58)" fill="#fff"/>
    <path id="Контур_766" data-name="Контур 766" d="M812.341,447.526v14.139h-.058l-8.65-14.139h-6.092v20.346h4.483V453.389h.057l8.88,14.483h1.256a4.69,4.69,0,0,0,4.607-4.759V447.526Z" transform="translate(-417.684 -1.601)" fill="#fff"/>
  </g>
</svg>
