  <svg xmlns="http://www.w3.org/2000/svg" width="36.497" height="43.929" viewBox="0 0 36.497 43.929"><defs>
          <style>.a{fill:none;stroke:#00733b;stroke-miterlimit:10;}</style></defs><g transform="translate(0.5 0.722)">    
          <path class="a" d="M145.718,208H125.137v-4.421a4.611,4.611,0,0,1,3.856-4.549h0a45,45,0,0,0,5.857-1.138,2.919,2.919,0,0,0,2.05-2.792v-1.666" transform="translate(-125.137 -175.431)"/>
          <path class="a" d="M145.465,193.437V195.1a2.918,2.918,0,0,0,2.054,2.788c.3.094.613.179.929.258" transform="translate(-125.137 -175.431)"/>
          <path class="a" d="M133.622,185.273a3.551,3.551,0,0,0-.7,2.323c.16,1.887,1.2,2.97,2.714,3.1.823,2.9,2.987,5.419,5.553,5.419s4.73-2.523,5.554-5.419a3.012,3.012,0,0,0,2.714-3.1,3.7,3.7,0,0,0-.706-2.324" transform="translate(-125.137 -175.431)"/>
          <path class="a" d="M142.888,183.324c1.013.378,5.858,1.948,5.858,1.948a8,8,0,0,0-3.311-8.415c-2.567-1.762-5.641-1.732-6.959-.774C137.223,176.993,138.25,181.594,142.888,183.324Z" transform="translate(-125.137 -175.431)"/>
          <path class="a" d="M138.972,180.286c-2.037.6-2.2,2.946-2.354,4.134l-3,.853a10.263,10.263,0,0,1-.157-2.207,7.153,7.153,0,0,1,1.821-4.9c1.592-1.692,2.906-1.632,2.906-1.632" transform="translate(-125.137 -175.431)"/>
          <path class="a" d="M151.864,211.52l3.413,5.911,1.2-3.548,3.671.738-3.088-5.347" transform="translate(-125.137 -175.431)"/>
          <path class="a" d="M146.675,209.274l-3.09,5.347,3.671-.738,1.2,3.548,3.413-5.911" transform="translate(-125.137 -175.431)"/><circle class="a" cx="7.121" cy="7.121" r="7.121" transform="translate(19.606 21.85)"/>
          <path class="a" d="M151.883,201l1.1,2.231,2.462.358-1.782,1.737.421,2.452-2.2-1.158-2.2,1.158.421-2.452-1.782-1.737,2.462-.358Z" transform="translate(-125.137 -175.431)"/><path class="a" d="M147.036,199.164a9.6,9.6,0,0,1-5.9,1.886,8.937,8.937,0,0,1-6.983-2.953" transform="translate(-125.137 -175.431)"/></g></svg>